<svg width="742" height="557" viewBox="0 0 742 557" fill="none" xmlns="http://www.w3.org/2000/svg">
<path d="M596.418 415.294C592.732 462.164 551.747 497.172 504.877 493.486C458.006 489.8 422.998 448.815 426.684 401.944C430.371 355.074 471.355 320.066 518.226 323.752C565.097 327.438 600.105 368.423 596.418 415.294Z" fill="url(#paint0_linear_1_856)"/>
<path d="M578.104 412.765C578.478 446.131 552.112 468.653 519.213 463.067C486.315 457.482 459.343 425.904 458.969 392.538C458.595 359.171 484.961 336.649 517.859 342.235C550.758 347.82 577.73 379.398 578.104 412.765Z" fill="url(#paint1_radial_1_856)"/>
<path d="M573.318 435.024C580.177 472.888 556.29 493.291 519.965 480.597C483.639 467.904 448.631 426.919 441.772 389.056C434.913 351.193 458.8 330.789 495.126 343.483C531.451 356.177 566.459 397.161 573.318 435.024Z" fill="url(#paint2_radial_1_856)"/>
<path d="M573.146 435.056C576.569 453.95 572.314 468.444 562.722 476.637C553.131 484.83 538.15 486.767 520.022 480.433C501.895 474.098 484.086 460.7 469.951 444.152C455.816 427.603 445.367 407.919 441.944 389.025C438.521 370.13 442.777 355.636 452.368 347.443C461.96 339.25 476.941 337.313 495.068 343.648C513.195 349.982 531.004 363.38 545.139 379.928C559.274 396.477 569.724 416.161 573.146 435.056Z" stroke="url(#paint3_linear_1_856)" stroke-opacity="0.2" stroke-width="0.348891"/>
<mask id="path-5-inside-1_1_856" fill="white">
<path fill-rule="evenodd" clip-rule="evenodd" d="M557.976 444.377C558.247 440.341 557.896 435.835 556.855 430.917C550.814 402.391 523.842 370.814 496.61 360.388C491.916 358.591 487.521 357.54 483.491 357.177C481.416 330.101 500.302 316.667 528.38 326.931C558.859 338.074 588.626 372.923 594.867 404.77C600.616 434.106 584.394 450.661 557.976 444.377Z"/>
</mask>
<path fill-rule="evenodd" clip-rule="evenodd" d="M557.976 444.377C558.247 440.341 557.896 435.835 556.855 430.917C550.814 402.391 523.842 370.814 496.61 360.388C491.916 358.591 487.521 357.54 483.491 357.177C481.416 330.101 500.302 316.667 528.38 326.931C558.859 338.074 588.626 372.923 594.867 404.77C600.616 434.106 584.394 450.661 557.976 444.377Z" fill="url(#paint4_linear_1_856)"/>
<path d="M556.855 430.917L556.513 430.99L556.855 430.917ZM557.976 444.377L557.628 444.354L557.608 444.649L557.895 444.717L557.976 444.377ZM496.61 360.388L496.735 360.062L496.61 360.388ZM483.491 357.177L483.144 357.203L483.166 357.498L483.46 357.524L483.491 357.177ZM528.38 326.931L528.499 326.604L528.38 326.931ZM594.867 404.77L595.209 404.702L594.867 404.77ZM556.513 430.99C557.549 435.881 557.896 440.354 557.628 444.354L558.324 444.401C558.598 440.327 558.243 435.789 557.196 430.845L556.513 430.99ZM496.486 360.714C510.034 365.901 523.539 376.36 534.414 389.091C545.289 401.823 553.508 416.797 556.513 430.99L557.196 430.845C554.161 416.511 545.874 401.433 534.945 388.638C524.015 375.843 510.419 365.301 496.735 360.062L496.486 360.714ZM483.46 357.524C487.453 357.884 491.817 358.926 496.486 360.714L496.735 360.062C492.016 358.256 487.589 357.196 483.523 356.829L483.46 357.524ZM483.839 357.15C482.808 343.694 486.987 333.708 494.825 328.339C502.671 322.966 514.283 322.149 528.26 327.259L528.499 326.604C514.399 321.449 502.529 322.217 494.431 327.764C486.326 333.315 482.099 343.583 483.144 357.203L483.839 357.15ZM528.26 327.259C543.429 332.805 558.444 344.26 570.447 358.313C582.451 372.366 591.418 388.987 594.524 404.837L595.209 404.702C592.074 388.706 583.038 371.979 570.978 357.86C558.918 343.741 543.809 332.201 528.499 326.604L528.26 327.259ZM594.524 404.837C597.386 419.44 594.765 430.782 588.231 437.691C581.703 444.594 571.186 447.161 558.056 444.038L557.895 444.717C571.184 447.878 581.987 445.309 588.738 438.171C595.481 431.04 598.096 419.435 595.209 404.702L594.524 404.837Z" fill="url(#paint5_linear_1_856)" fill-opacity="0.3" mask="url(#path-5-inside-1_1_856)"/>
<g style="mix-blend-mode:lighten">
<path d="M246.975 239.67C289.502 203.344 354.211 209.291 391.505 252.953C428.8 296.615 424.558 361.457 382.03 397.783C339.503 434.109 274.795 428.162 237.5 384.5C200.206 340.838 204.447 275.996 246.975 239.67Z" fill="url(#paint6_radial_1_856)" fill-opacity="0.6"/>
</g>
<g style="mix-blend-mode:lighten">
<path d="M224.965 405.024C284.944 353.792 375.239 361.048 426.645 421.23C478.052 481.413 471.103 571.733 411.124 622.965C351.146 674.197 260.85 666.941 209.444 606.758C158.037 546.575 164.986 456.256 224.965 405.024Z" fill="url(#paint7_radial_1_856)" fill-opacity="0.8"/>
</g>
<path d="M556.854 430.917C562.894 459.444 545.715 474.118 518.483 463.692C491.251 453.267 464.279 421.69 458.239 393.163C452.199 364.636 469.378 349.962 496.609 360.388C523.841 370.813 550.813 402.39 556.854 430.917Z" fill="url(#paint8_radial_1_856)"/>
<path d="M457.051 575.324C410.327 582.014 373.724 569.783 352.273 544.67C330.822 519.556 324.463 481.491 338.375 436.388C352.288 391.283 383.83 347.718 423.593 313.754C463.355 279.79 511.315 255.446 558.04 248.756C604.764 242.066 641.367 254.297 662.819 279.41C684.27 304.523 690.628 342.588 676.716 387.692C662.803 432.797 631.261 476.362 591.499 510.326C551.736 544.29 503.776 568.634 457.051 575.324Z" stroke="url(#paint9_linear_1_856)" stroke-width="0.581485"/>
<path d="M451.745 569.305C404.967 576.003 368.274 563.763 346.757 538.572C325.24 513.381 318.886 475.226 332.814 430.07C346.743 384.914 378.315 341.314 418.103 307.328C457.891 273.343 505.89 248.975 552.669 242.277C599.447 235.579 636.139 247.819 657.656 273.01C679.174 298.201 685.528 336.356 671.599 381.512C657.671 426.668 626.099 470.268 586.311 504.253C546.523 538.239 498.523 562.607 451.745 569.305Z" stroke="url(#paint10_linear_1_856)" stroke-width="0.116297"/>
<rect x="428.281" y="370.313" width="2.20724" height="2.20724" transform="rotate(-85.503 428.281 370.313)" fill="#00F0FF" fill-opacity="0.5"/>
<rect x="428.372" y="281.213" width="0.91012" height="0.910121" transform="rotate(-85.503 428.372 281.213)" fill="#00F0FF"/>
<rect width="1.19523" height="1.19523" transform="matrix(-0.078406 0.996921 0.996922 0.0784061 607.939 264.416)" fill="#00F0FF"/>
<rect x="461.185" y="257.326" width="1.37645" height="1.37645" transform="rotate(-85.503 461.185 257.326)" fill="#00F0FF"/>
<rect x="465.137" y="277.398" width="0.815753" height="0.815753" transform="rotate(-85.503 465.137 277.398)" fill="#00F0FF"/>
<rect x="468.61" y="407.829" width="2.20724" height="2.20724" transform="rotate(-85.503 468.61 407.829)" fill="#00F0FF"/>
<rect x="404.537" y="447.087" width="2.20724" height="2.20724" transform="rotate(-85.503 404.537 447.087)" fill="#0500FF" fill-opacity="0.5"/>
<rect x="386.704" y="379.231" width="1.54264" height="1.54264" transform="rotate(-85.503 386.704 379.231)" fill="#3DFFFB"/>
<rect x="567.757" y="477.739" width="2.87084" height="2.87084" transform="rotate(-85.503 567.757 477.739)" fill="#0500FF" fill-opacity="0.5"/>
<rect width="3.06521" height="3.06521" transform="matrix(0.078411 -0.996921 0.996922 0.0784011 696.974 424.617)" fill="#0066FF" fill-opacity="0.5"/>
<rect width="6.19058" height="6.19057" transform="matrix(0.0784036 -0.996922 0.996921 0.0784085 722.256 360.213)" fill="#0066FF" fill-opacity="0.5"/>
<rect width="2.88061" height="2.88061" transform="matrix(-0.0784061 0.996922 0.996922 0.0784061 651.994 271.215)" fill="#0066FF" fill-opacity="0.5"/>
<rect width="3.06521" height="3.06521" transform="matrix(0.078411 -0.996921 0.996922 0.0784011 724.36 271.945)" fill="#0066FF" fill-opacity="0.5"/>
<rect width="3.06521" height="3.06521" transform="matrix(0.0784011 -0.996922 0.996921 0.078411 735.305 480.674)" fill="#0066FF" fill-opacity="0.5"/>
<rect x="646.217" y="535.258" width="3.06521" height="3.06521" transform="rotate(-85.503 646.217 535.258)" fill="#0500FF" fill-opacity="0.5"/>
<rect width="2.14487" height="2.14487" transform="matrix(0.078399 -0.996922 0.996921 0.0784131 661.607 460.528)" fill="#0500FF" fill-opacity="0.5"/>
<rect x="670.423" y="487.327" width="3.99159" height="3.99159" transform="rotate(-85.503 670.423 487.327)" fill="#0500FF" fill-opacity="0.5"/>
<rect width="2.624" height="2.624" transform="matrix(-0.958331 -0.28566 0.285693 -0.958321 598.186 359.434)" fill="#0066FF" fill-opacity="0.5"/>
<rect width="2.05279" height="2.05279" transform="matrix(-0.996921 -0.0784134 0.0783987 -0.996922 547.982 324.526)" fill="#00D1FF"/>
<rect width="2.46597" height="2.46597" transform="matrix(0.958326 0.285676 0.285676 -0.958326 461.736 369.55)" fill="#001AFF" fill-opacity="0.5"/>
<rect x="475.331" y="309.12" width="2.624" height="2.624" transform="rotate(-163.401 475.331 309.12)" fill="#0066FF" fill-opacity="0.5"/>
<rect width="2.624" height="2.624" transform="matrix(-0.958331 -0.28566 0.285693 -0.958321 651.975 337.415)" fill="#0066FF" fill-opacity="0.5"/>
<rect x="556.204" y="267.247" width="1.89711" height="1.89711" transform="rotate(-175.503 556.204 267.247)" fill="#0500FF" fill-opacity="0.5"/>
<rect width="1.83579" height="1.83579" transform="matrix(-0.958333 -0.285652 0.2857 -0.958319 621.891 395.476)" fill="#0500FF" fill-opacity="0.5"/>
<rect x="645.899" y="392.907" width="3.41638" height="3.41638" transform="rotate(-163.401 645.899 392.907)" fill="#0500FF" fill-opacity="0.5"/>
<rect width="1.47004" height="1.47004" transform="matrix(0.0784165 -0.996921 0.996922 0.0783957 446.991 372.71)" fill="#00FFF0" fill-opacity="0.6"/>
<rect x="434.056" y="469.714" width="1.65617" height="1.65617" transform="rotate(-85.503 434.056 469.714)" fill="#00FFF0"/>
<rect width="1.82861" height="1.82861" transform="matrix(-0.0784062 0.996921 0.996922 0.078406 378.546 353.763)" fill="#00FFF0"/>
<rect x="415.133" y="327.847" width="1.94579" height="1.94579" transform="rotate(-85.503 415.133 327.847)" fill="#00FFF0"/>
<rect width="1.94579" height="1.94579" transform="matrix(0.0783984 -0.996922 0.996921 0.0784138 557.523 404.068)" fill="#00FFF0" fill-opacity="0.5"/>
<rect x="506.888" y="427.334" width="1.06667" height="1.06667" transform="rotate(-85.503 506.888 427.334)" fill="#00FFF0" fill-opacity="0.5"/>
<rect x="471.907" y="493.161" width="1.94579" height="1.94579" transform="rotate(-120.813 471.907 493.161)" fill="#0500FF" fill-opacity="0.5"/>
<rect x="451.989" y="448.55" width="1.35852" height="1.35852" transform="rotate(-85.503 451.989 448.55)" fill="#00D1FF" fill-opacity="0.6"/>
<rect x="465.333" y="459.435" width="3.66271" height="3.66272" transform="rotate(-85.503 465.333 459.435)" fill="#6100FF" fill-opacity="0.5"/>
<g opacity="0.5">
<rect x="373.546" y="320.589" width="1.47004" height="1.47004" transform="rotate(-85.5031 373.546 320.589)" fill="#00FFF0" fill-opacity="0.6"/>
<rect width="1.65617" height="1.65617" transform="matrix(0.0784151 -0.996921 0.996922 0.0783971 360.612 417.593)" fill="#00FFF0"/>
<rect width="1.82861" height="1.82861" transform="matrix(-0.078406 0.996922 0.996921 0.0784062 305.102 301.644)" fill="#00FFF0"/>
<rect width="1.94579" height="1.94579" transform="matrix(0.0783982 -0.996922 0.996921 0.078414 341.689 275.727)" fill="#00FFF0"/>
<rect x="484.08" y="351.947" width="1.94579" height="1.94579" transform="rotate(-85.5031 484.08 351.947)" fill="#00FFF0" fill-opacity="0.5"/>
<rect x="433.444" y="375.213" width="1.06667" height="1.06667" transform="rotate(-85.5031 433.444 375.213)" fill="#00FFF0" fill-opacity="0.5"/>
<rect x="398.464" y="441.04" width="1.94579" height="1.94579" transform="rotate(-120.813 398.464 441.04)" fill="#0500FF" fill-opacity="0.5"/>
<rect x="378.546" y="396.429" width="1.35852" height="1.35852" transform="rotate(-85.5031 378.546 396.429)" fill="#00D1FF" fill-opacity="0.6"/>
<rect width="3.66272" height="3.66272" transform="matrix(0.0784018 -0.996922 0.996921 0.0784103 391.89 407.316)" fill="#6100FF" fill-opacity="0.5"/>
</g>
<path d="M552.865 471.819L550.26 458.264L563.241 462.956L565.845 476.511L552.865 471.819Z" fill="url(#paint11_linear_1_856)"/>
<path d="M563.24 462.957L550.259 458.266L539.764 483.007L563.24 462.957Z" fill="url(#paint12_linear_1_856)"/>
<path d="M563.24 462.96L565.861 476.511L539.765 483.01L563.24 462.96Z" fill="url(#paint13_linear_1_856)"/>
<path d="M457.094 356.001L455.45 347.448L463.641 350.409L465.284 358.962L457.094 356.001Z" fill="url(#paint14_linear_1_856)"/>
<path d="M463.643 350.408L455.451 347.447L448.828 363.061L463.643 350.408Z" fill="url(#paint15_linear_1_856)" fill-opacity="0.6"/>
<path d="M463.641 350.408L465.295 358.959L448.826 363.061L463.641 350.408Z" fill="url(#paint16_linear_1_856)"/>
<path d="M401.686 287.986L398.877 273.864L412.45 278.67L415.259 292.792L401.686 287.986Z" fill="url(#paint17_linear_1_856)"/>
<path d="M412.449 278.673L398.876 273.867L388.098 299.747L412.449 278.673Z" fill="url(#paint18_linear_1_856)" fill-opacity="0.6"/>
<path d="M412.449 278.673L415.274 292.79L388.097 299.747L412.449 278.673Z" fill="url(#paint19_linear_1_856)"/>
<path d="M471.33 430.585L470.504 437.07L475.325 442.572L481.204 441.962L478.703 434.618L471.33 430.585Z" fill="url(#paint20_linear_1_856)" fill-opacity="0.7"/>
<path d="M454.666 454.822L472.412 450.041L480.429 448.94L454.666 454.822Z" fill="url(#paint21_linear_1_856)" fill-opacity="0.8"/>
<path d="M454.666 454.822L463.238 439.532L464.451 430.606L454.666 454.822Z" fill="url(#paint22_linear_1_856)"/>
<path d="M464.449 430.608L463.239 439.537L470.503 437.07L471.33 430.584L464.449 430.608Z" fill="url(#paint23_linear_1_856)" fill-opacity="0.6"/>
<path d="M472.411 450.04L463.24 439.535L470.504 437.068L475.325 442.569L472.411 450.04Z" fill="url(#paint24_linear_1_856)" fill-opacity="0.6"/>
<path d="M472.41 450.043L480.428 448.94L481.204 441.961L475.325 442.571L472.41 450.043Z" fill="url(#paint25_linear_1_856)" fill-opacity="0.8"/>
<path d="M454.666 454.822L476.33 437.106L480.429 448.94L454.666 454.822Z" fill="url(#paint26_linear_1_856)"/>
<path d="M454.666 454.821L476.329 437.106L464.451 430.605L454.666 454.821Z" fill="url(#paint27_linear_1_856)"/>
<path d="M480.428 448.941L476.33 437.106L478.703 434.617L481.204 441.965L480.428 448.941Z" fill="url(#paint28_linear_1_856)" fill-opacity="0.6"/>
<path d="M464.448 430.608L476.329 437.107L478.704 434.618L471.328 430.584L464.448 430.608Z" fill="url(#paint29_linear_1_856)" fill-opacity="0.6"/>
<g filter="url(#filter0_d_1_856)">
<path d="M446.928 597.609C392.216 604.375 348.911 589.021 323.087 558.788C297.263 528.555 288.868 483.382 304.103 430.401C319.339 377.418 355.316 326.691 401.18 287.516C447.044 248.341 502.771 220.736 557.485 213.97C612.196 207.204 655.501 222.558 681.325 252.791C707.149 283.024 715.544 328.197 700.309 381.178C685.073 434.161 649.096 484.888 603.232 524.063C557.369 563.239 501.641 590.844 446.928 597.609Z" stroke="url(#paint30_linear_1_856)" stroke-width="0.581485" shape-rendering="crispEdges"/>
<path d="M446.928 597.609C392.216 604.375 348.911 589.021 323.087 558.788C297.263 528.555 288.868 483.382 304.103 430.401C319.339 377.418 355.316 326.691 401.18 287.516C447.044 248.341 502.771 220.736 557.485 213.97C612.196 207.204 655.501 222.558 681.325 252.791C707.149 283.024 715.544 328.197 700.309 381.178C685.073 434.161 649.096 484.888 603.232 524.063C557.369 563.239 501.641 590.844 446.928 597.609Z" stroke="url(#paint31_linear_1_856)" stroke-opacity="0.2" stroke-width="0.581485" shape-rendering="crispEdges"/>
</g>
<defs>
<filter id="filter0_d_1_856" x="292.223" y="212.1" width="419.965" height="395.379" filterUnits="userSpaceOnUse" color-interpolation-filters="sRGB">
<feFlood flood-opacity="0" result="BackgroundImageFix"/>
<feColorMatrix in="SourceAlpha" type="matrix" values="0 0 0 0 0 0 0 0 0 0 0 0 0 0 0 0 0 0 127 0" result="hardAlpha"/>
<feOffset dy="4"/>
<feGaussianBlur stdDeviation="2"/>
<feComposite in2="hardAlpha" operator="out"/>
<feColorMatrix type="matrix" values="0 0 0 0 0 0 0 0 0 0 0 0 0 0 0 0 0 0 0.25 0"/>
<feBlend mode="normal" in2="BackgroundImageFix" result="effect1_dropShadow_1_856"/>
<feBlend mode="normal" in="SourceGraphic" in2="effect1_dropShadow_1_856" result="shape"/>
</filter>
<linearGradient id="paint0_linear_1_856" x1="548.427" y1="332.322" x2="487.877" y2="428.841" gradientUnits="userSpaceOnUse">
<stop stop-color="white"/>
<stop offset="0.165772" stop-color="#71FFF6"/>
<stop offset="0.552083" stop-color="#4F75FF"/>
<stop offset="1" stop-color="#5E64FF" stop-opacity="0"/>
</linearGradient>
<radialGradient id="paint1_radial_1_856" cx="0" cy="0" r="1" gradientUnits="userSpaceOnUse" gradientTransform="translate(512.537 426.823) rotate(-77.9792) scale(75.8329 90.5089)">
<stop offset="0.40625" stop-color="#3330B1" stop-opacity="0.1"/>
<stop offset="0.678936" stop-color="#58FFFF" stop-opacity="0.5"/>
<stop offset="1" stop-color="white"/>
</radialGradient>
<radialGradient id="paint2_radial_1_856" cx="0" cy="0" r="1" gradientUnits="userSpaceOnUse" gradientTransform="translate(506.962 352.965) rotate(123.322) scale(96.4991 165.291)">
<stop stop-color="white"/>
<stop offset="0.298196" stop-color="#5EF5FF"/>
<stop offset="0.538073" stop-color="#3432BD"/>
<stop offset="0.914407" stop-color="#171940"/>
</radialGradient>
<linearGradient id="paint3_linear_1_856" x1="504.008" y1="346.68" x2="480.461" y2="449.923" gradientUnits="userSpaceOnUse">
<stop stop-color="white"/>
<stop offset="1" stop-color="white" stop-opacity="0"/>
</linearGradient>
<linearGradient id="paint4_linear_1_856" x1="546.147" y1="343.241" x2="537.857" y2="415.632" gradientUnits="userSpaceOnUse">
<stop stop-color="white"/>
<stop offset="0.502014" stop-color="#4FFFF4" stop-opacity="0.1"/>
<stop offset="1" stop-color="#5ECFFF" stop-opacity="0.6"/>
</linearGradient>
<linearGradient id="paint5_linear_1_856" x1="539.239" y1="311.679" x2="551.493" y2="474.281" gradientUnits="userSpaceOnUse">
<stop stop-color="white"/>
<stop offset="1" stop-color="white" stop-opacity="0"/>
</linearGradient>
<radialGradient id="paint6_radial_1_856" cx="0" cy="0" r="1" gradientUnits="userSpaceOnUse" gradientTransform="translate(515.973 359.621) rotate(-49.725) scale(80.5046 82.7005)">
<stop offset="0.0729167" stop-color="white"/>
<stop offset="0.507801" stop-color="#C173FF" stop-opacity="0.9"/>
<stop offset="1" stop-color="#0E26FF" stop-opacity="0"/>
</radialGradient>
<radialGradient id="paint7_radial_1_856" cx="0" cy="0" r="1" gradientUnits="userSpaceOnUse" gradientTransform="translate(488.22 373.829) rotate(-49.5194) scale(113.475 114.059)">
<stop offset="0.0729167" stop-color="#8785FF"/>
<stop offset="1" stop-color="#3E0EFF" stop-opacity="0"/>
</radialGradient>
<radialGradient id="paint8_radial_1_856" cx="0" cy="0" r="1" gradientUnits="userSpaceOnUse" gradientTransform="translate(461.933 464.857) rotate(-55.6889) scale(98.5969 173.478)">
<stop stop-color="#3330B1"/>
<stop offset="1" stop-color="#0A0926"/>
</radialGradient>
<linearGradient id="paint9_linear_1_856" x1="382.96" y1="266.185" x2="518.389" y2="424.734" gradientUnits="userSpaceOnUse">
<stop stop-color="#8FBCFF" stop-opacity="0.6"/>
<stop offset="1" stop-color="#8FBCFF" stop-opacity="0"/>
</linearGradient>
<linearGradient id="paint10_linear_1_856" x1="410.752" y1="298.723" x2="586.349" y2="504.298" gradientUnits="userSpaceOnUse">
<stop stop-color="#8FBCFF" stop-opacity="0.6"/>
<stop offset="1" stop-color="#8FBCFF" stop-opacity="0"/>
</linearGradient>
<linearGradient id="paint11_linear_1_856" x1="549.595" y1="466.722" x2="566.511" y2="468.053" gradientUnits="userSpaceOnUse">
<stop stop-color="#6083FF"/>
<stop offset="1" stop-color="#0C1E5E" stop-opacity="0"/>
</linearGradient>
<linearGradient id="paint12_linear_1_856" x1="553.597" y1="456.499" x2="539.693" y2="482.924" gradientUnits="userSpaceOnUse">
<stop offset="0.170794" stop-color="#3D3BA9"/>
<stop offset="0.537799" stop-color="#FF7BE2" stop-opacity="0.8"/>
<stop offset="0.791667" stop-color="white"/>
</linearGradient>
<linearGradient id="paint13_linear_1_856" x1="539.857" y1="483.118" x2="564.76" y2="474.989" gradientUnits="userSpaceOnUse">
<stop stop-color="#3DDCFF"/>
<stop offset="0.427083" stop-color="#9D50FF" stop-opacity="0"/>
<stop offset="0.977116" stop-color="#3DDCFF"/>
</linearGradient>
<linearGradient id="paint14_linear_1_856" x1="455.03" y1="352.785" x2="465.704" y2="353.625" gradientUnits="userSpaceOnUse">
<stop stop-color="#6083FF"/>
<stop offset="1" stop-color="#0C1E5E" stop-opacity="0"/>
</linearGradient>
<linearGradient id="paint15_linear_1_856" x1="457.558" y1="346.332" x2="448.783" y2="363.009" gradientUnits="userSpaceOnUse">
<stop offset="0.170794" stop-color="#3D3BA9"/>
<stop offset="0.537799" stop-color="#FF7BE2" stop-opacity="0.8"/>
<stop offset="0.791667" stop-color="white"/>
</linearGradient>
<linearGradient id="paint16_linear_1_856" x1="448.884" y1="363.129" x2="464.601" y2="357.999" gradientUnits="userSpaceOnUse">
<stop stop-color="#3DDCFF"/>
<stop offset="0.427083" stop-color="#9D50FF" stop-opacity="0.5"/>
<stop offset="0.977116" stop-color="#3DDCFF"/>
</linearGradient>
<linearGradient id="paint17_linear_1_856" x1="398.241" y1="282.692" x2="415.895" y2="283.964" gradientUnits="userSpaceOnUse">
<stop stop-color="#6083FF"/>
<stop offset="1" stop-color="#0C1E5E" stop-opacity="0"/>
</linearGradient>
<linearGradient id="paint18_linear_1_856" x1="402.347" y1="272.001" x2="388.023" y2="299.66" gradientUnits="userSpaceOnUse">
<stop offset="0.170794" stop-color="#3D3BA9"/>
<stop offset="0.537799" stop-color="#FF7BE2" stop-opacity="0.8"/>
<stop offset="0.791667" stop-color="white"/>
</linearGradient>
<linearGradient id="paint19_linear_1_856" x1="388.194" y1="299.859" x2="414.116" y2="291.211" gradientUnits="userSpaceOnUse">
<stop stop-color="#3DDCFF"/>
<stop offset="0.427083" stop-color="#9D50FF" stop-opacity="0.5"/>
<stop offset="0.977116" stop-color="#3DDCFF"/>
</linearGradient>
<linearGradient id="paint20_linear_1_856" x1="468.217" y1="434.967" x2="479.651" y2="435.663" gradientUnits="userSpaceOnUse">
<stop stop-color="#6587FF"/>
<stop offset="1" stop-color="#D8E0FF" stop-opacity="0.9"/>
</linearGradient>
<linearGradient id="paint21_linear_1_856" x1="470.785" y1="441.053" x2="479.32" y2="456.147" gradientUnits="userSpaceOnUse">
<stop offset="0.135417" stop-color="white"/>
<stop offset="0.28125" stop-color="#89F8FF" stop-opacity="0.934673"/>
<stop offset="0.645833" stop-color="#71F6FF" stop-opacity="0.921354"/>
<stop offset="1" stop-color="#4A72FF" stop-opacity="0.9"/>
</linearGradient>
<linearGradient id="paint22_linear_1_856" x1="454.732" y1="437.65" x2="462.479" y2="450.672" gradientUnits="userSpaceOnUse">
<stop offset="0.170794" stop-color="#3D3BA9"/>
<stop offset="0.537799" stop-color="#FF7BE2" stop-opacity="0.8"/>
<stop offset="0.791667" stop-color="white"/>
</linearGradient>
<linearGradient id="paint23_linear_1_856" x1="467.604" y1="427.914" x2="471.532" y2="436.834" gradientUnits="userSpaceOnUse">
<stop offset="0.135417" stop-color="white"/>
<stop offset="0.28125" stop-color="#89F8FF" stop-opacity="0.934673"/>
<stop offset="0.645833" stop-color="#71F6FF" stop-opacity="0.921354"/>
<stop offset="1" stop-color="#4A72FF" stop-opacity="0.9"/>
</linearGradient>
<linearGradient id="paint24_linear_1_856" x1="466.097" y1="437.095" x2="462.758" y2="446.638" gradientUnits="userSpaceOnUse">
<stop offset="0.135417" stop-color="white"/>
<stop offset="0.28125" stop-color="#89F8FF" stop-opacity="0.934673"/>
<stop offset="0.645833" stop-color="#71F6FF" stop-opacity="0.921354"/>
<stop offset="1" stop-color="#4A72FF" stop-opacity="0.9"/>
</linearGradient>
<linearGradient id="paint25_linear_1_856" x1="479.998" y1="442.137" x2="483.53" y2="448.929" gradientUnits="userSpaceOnUse">
<stop offset="0.135417" stop-color="white"/>
<stop offset="0.28125" stop-color="#89F8FF" stop-opacity="0.934673"/>
<stop offset="0.645833" stop-color="#71F6FF" stop-opacity="0.921354"/>
<stop offset="1" stop-color="#4A72FF" stop-opacity="0.9"/>
</linearGradient>
<linearGradient id="paint26_linear_1_856" x1="462.749" y1="464.116" x2="467.121" y2="440.354" gradientUnits="userSpaceOnUse">
<stop stop-color="#3DDCFF"/>
<stop offset="0.427083" stop-color="#9D50FF" stop-opacity="0"/>
<stop offset="0.977116" stop-color="#3DDCFF"/>
</linearGradient>
<linearGradient id="paint27_linear_1_856" x1="473.365" y1="427.909" x2="471.66" y2="461.735" gradientUnits="userSpaceOnUse">
<stop offset="0.170794" stop-color="#3D3BA9"/>
<stop offset="0.537799" stop-color="#FF7BE2" stop-opacity="0.8"/>
<stop offset="0.791667" stop-color="white"/>
</linearGradient>
<linearGradient id="paint28_linear_1_856" x1="479.6" y1="434.313" x2="481.893" y2="448.483" gradientUnits="userSpaceOnUse">
<stop offset="0.135417" stop-color="white"/>
<stop offset="0.28125" stop-color="#89F8FF" stop-opacity="0.934673"/>
<stop offset="0.645833" stop-color="#71F6FF" stop-opacity="0.921354"/>
<stop offset="1" stop-color="#4A72FF" stop-opacity="0.9"/>
</linearGradient>
<linearGradient id="paint29_linear_1_856" x1="468.559" y1="435.421" x2="475.999" y2="429.065" gradientUnits="userSpaceOnUse">
<stop stop-color="#3E5ABE"/>
<stop offset="1" stop-color="#3E5ABE" stop-opacity="0"/>
</linearGradient>
<linearGradient id="paint30_linear_1_856" x1="346.293" y1="223.258" x2="531.929" y2="440.587" gradientUnits="userSpaceOnUse">
<stop stop-color="white" stop-opacity="0.6"/>
<stop offset="0.34375" stop-color="#8FBCFF" stop-opacity="0.6"/>
<stop offset="1" stop-color="#8FBCFF" stop-opacity="0"/>
</linearGradient>
<linearGradient id="paint31_linear_1_856" x1="515.91" y1="225.273" x2="533.491" y2="301.424" gradientUnits="userSpaceOnUse">
<stop stop-color="#FF48D7"/>
<stop offset="0.234164" stop-color="white" stop-opacity="0.765836"/>
<stop offset="1" stop-color="#FF48D7" stop-opacity="0"/>
</linearGradient>
</defs>
</svg>
