<svg width="226" height="185" viewBox="0 0 226 185" fill="none" xmlns="http://www.w3.org/2000/svg">
<circle cx="133.1" cy="92.451" r="62.3164" fill="url(#paint0_radial_1_721)" fill-opacity="0.5"/>
<circle cx="133.1" cy="92.4309" r="92.3062" fill="url(#paint1_radial_1_721)" fill-opacity="0.6"/>
<g filter="url(#filter0_d_1_721)">
<ellipse cx="133.099" cy="121.145" rx="49.1199" ry="30.7723" fill="url(#paint2_linear_1_721)" fill-opacity="0.5" shape-rendering="crispEdges"/>
<path d="M182 121.145C182 129.54 176.568 137.173 167.716 142.719C158.867 148.263 146.629 151.699 133.099 151.699C119.57 151.699 107.331 148.263 98.4824 142.719C89.6304 137.173 84.1982 129.54 84.1982 121.145C84.1982 112.75 89.6304 105.117 98.4824 99.5714C107.331 94.0278 119.57 90.5918 133.099 90.5918C146.629 90.5918 158.867 94.0278 167.716 99.5714C176.568 105.117 182 112.75 182 121.145Z" stroke="url(#paint3_linear_1_721)" stroke-opacity="0.6" stroke-width="0.437865" shape-rendering="crispEdges"/>
</g>
<circle cx="133.099" cy="92.4516" r="62.3164" fill="url(#paint4_radial_1_721)"/>
<g filter="url(#filter1_d_1_721)">
<ellipse cx="133.1" cy="102.755" rx="60.9248" ry="35.6422" fill="url(#paint5_linear_1_721)" fill-opacity="0.5" shape-rendering="crispEdges"/>
</g>
<g filter="url(#filter2_d_1_721)">
<ellipse cx="133.099" cy="80.6269" rx="60.305" ry="34.8179" fill="url(#paint6_linear_1_721)" fill-opacity="0.5" shape-rendering="crispEdges"/>
<path d="M193.185 80.6269C193.185 90.1302 186.512 98.7755 175.632 105.057C164.758 111.336 149.721 115.226 133.099 115.226C116.478 115.226 101.441 111.336 90.5667 105.057C79.6867 98.7755 73.0132 90.1302 73.0132 80.6269C73.0132 71.1235 79.6867 62.4782 90.5667 56.1965C101.441 49.9181 116.478 46.0279 133.099 46.0279C149.721 46.0279 164.758 49.9181 175.632 56.1965C186.512 62.4782 193.185 71.1235 193.185 80.6269Z" stroke="url(#paint7_linear_1_721)" stroke-opacity="0.6" stroke-width="0.437865" shape-rendering="crispEdges"/>
</g>
<g filter="url(#filter3_d_1_721)">
<ellipse cx="133.1" cy="52.1414" rx="29.1264" ry="19.7413" fill="url(#paint8_linear_1_721)" fill-opacity="0.5" shape-rendering="crispEdges"/>
</g>
<circle cx="133.099" cy="92.451" r="46.159" fill="url(#paint9_radial_1_721)"/>
<g filter="url(#filter4_d_1_721)">
<path d="M179.674 62.6471C179.674 70.9004 174.499 78.4021 166.069 83.8511C157.641 89.2987 145.985 92.6752 133.098 92.6752C120.212 92.6752 108.556 89.2987 100.128 83.8511C91.6981 78.4021 86.5223 70.9004 86.5223 62.6471C86.5223 54.3938 91.6981 46.8921 100.128 41.4431C108.556 35.9955 120.212 32.619 133.098 32.619C145.985 32.619 157.641 35.9955 166.069 41.4431C174.499 46.8921 179.674 54.3938 179.674 62.6471Z" stroke="url(#paint10_linear_1_721)" stroke-opacity="0.6" stroke-width="0.437865" shape-rendering="crispEdges"/>
</g>
<g filter="url(#filter5_d_1_721)">
<path d="M193.185 80.6269C193.185 90.1302 186.512 98.7755 175.632 105.057C164.758 111.336 149.721 115.226 133.099 115.226C116.478 115.226 101.441 111.336 90.5667 105.057C79.6867 98.7755 73.0132 90.1302 73.0132 80.6269C73.0132 71.1235 79.6867 62.4782 90.5667 56.1965C101.441 49.9181 116.478 46.0279 133.099 46.0279C149.721 46.0279 164.758 49.9181 175.632 56.1965C186.512 62.4782 193.185 71.1235 193.185 80.6269Z" stroke="url(#paint11_linear_1_721)" stroke-opacity="0.6" stroke-width="0.437865" shape-rendering="crispEdges"/>
</g>
<g filter="url(#filter6_d_1_721)">
<path d="M193.806 102.755C193.806 112.487 187.061 121.339 176.069 127.769C165.083 134.196 149.892 138.178 133.1 138.178C116.308 138.178 101.116 134.196 90.13 127.769C79.1386 121.339 72.3939 112.487 72.3939 102.755C72.3939 93.0224 79.1386 84.1712 90.13 77.741C101.116 71.3139 116.308 67.3316 133.1 67.3316C149.892 67.3316 165.083 71.3139 176.069 77.741C187.061 84.1712 193.806 93.0224 193.806 102.755Z" stroke="url(#paint12_linear_1_721)" stroke-opacity="0.6" stroke-width="0.437865" shape-rendering="crispEdges"/>
</g>
<g filter="url(#filter7_d_1_721)">
<path d="M162.008 52.1414C162.008 57.4985 158.804 62.3737 153.573 65.9193C148.343 69.4641 141.105 71.6637 133.1 71.6637C125.095 71.6637 117.858 69.4641 112.628 65.9193C107.396 62.3737 104.193 57.4985 104.193 52.1414C104.193 46.7842 107.396 41.909 112.628 38.3634C117.858 34.8186 125.095 32.619 133.1 32.619C141.105 32.619 148.343 34.8186 153.573 38.3634C158.804 41.909 162.008 46.7842 162.008 52.1414Z" stroke="url(#paint13_linear_1_721)" stroke-opacity="0.6" stroke-width="0.437865" shape-rendering="crispEdges"/>
</g>
<circle cx="35.4186" cy="52.1632" r="35.3655" fill="url(#paint14_radial_1_721)" fill-opacity="0.6"/>
<g filter="url(#filter8_d_1_721)">
<ellipse cx="31.0704" cy="61.9808" rx="22.2224" ry="13.9217" fill="url(#paint15_linear_1_721)" fill-opacity="0.5" shape-rendering="crispEdges"/>
<path d="M53.0738 61.9808C53.0738 65.7227 50.6522 69.1432 46.6678 71.6394C42.6863 74.1337 37.1724 75.6836 31.0704 75.6836C24.9684 75.6836 19.4545 74.1337 15.473 71.6394C11.4886 69.1432 9.06696 65.7227 9.06696 61.9808C9.06696 58.2389 11.4886 54.8183 15.473 52.3222C19.4545 49.8279 24.9684 48.278 31.0704 48.278C37.1724 48.278 42.6863 49.8279 46.6678 52.3222C50.6522 54.8183 53.0738 58.2389 53.0738 61.9808Z" stroke="url(#paint16_linear_1_721)" stroke-opacity="0.6" stroke-width="0.437865" shape-rendering="crispEdges"/>
</g>
<circle cx="31.0705" cy="48.9991" r="28.1926" fill="url(#paint17_radial_1_721)"/>
<g filter="url(#filter9_d_1_721)">
<ellipse cx="31.07" cy="53.6606" rx="27.563" ry="16.1249" fill="url(#paint18_linear_1_721)" fill-opacity="0.5" shape-rendering="crispEdges"/>
<path d="M58.4141 53.6606C58.4141 58.0035 55.4036 61.9754 50.4495 64.8736C45.5006 67.7688 38.6495 69.5666 31.07 69.5666C23.4906 69.5666 16.6394 67.7688 11.6906 64.8736C6.73647 61.9754 3.72595 58.0035 3.72595 53.6606C3.72595 49.3177 6.73647 45.3458 11.6906 42.4475C16.6394 39.5524 23.4906 37.7546 31.07 37.7546C38.6495 37.7546 45.5006 39.5524 50.4495 42.4475C55.4036 45.3458 58.4141 49.3177 58.4141 53.6606Z" stroke="url(#paint19_linear_1_721)" stroke-opacity="0.6" stroke-width="0.437865" shape-rendering="crispEdges"/>
</g>
<circle cx="31.0705" cy="48.9993" r="20.8828" fill="url(#paint20_radial_1_721)"/>
<circle cx="31.0705" cy="48.9993" r="20.8828" fill="url(#paint21_radial_1_721)"/>
<g filter="url(#filter10_d_1_721)">
<ellipse cx="31.0716" cy="43.6499" rx="27.2827" ry="15.752" fill="url(#paint22_linear_1_721)" fill-opacity="0.5" shape-rendering="crispEdges"/>
<path d="M58.1353 43.6499C58.1353 47.8884 55.1579 51.7672 50.2538 54.5987C45.3555 57.4268 38.574 59.183 31.0716 59.183C23.5691 59.183 16.7876 57.4268 11.8893 54.5987C6.98519 51.7672 4.00784 47.8884 4.00784 43.6499C4.00784 39.4115 6.98519 35.5326 11.8893 32.7012C16.7876 29.8731 23.5691 28.1169 31.0716 28.1169C38.574 28.1169 45.3555 29.8731 50.2538 32.7012C55.1579 35.5326 58.1353 39.4115 58.1353 43.6499Z" stroke="url(#paint23_linear_1_721)" stroke-opacity="0.6" stroke-width="0.437865" shape-rendering="crispEdges"/>
</g>
<g filter="url(#filter11_d_1_721)">
<ellipse cx="31.0708" cy="35.5159" rx="21.1706" ry="13.6841" fill="url(#paint24_linear_1_721)" fill-opacity="0.5" shape-rendering="crispEdges"/>
<path d="M52.0224 35.5159C52.0224 39.1955 49.7147 42.5565 45.9218 45.0082C42.131 47.4584 36.881 48.9811 31.0708 48.9811C25.2605 48.9811 20.0105 47.4584 16.2198 45.0082C12.4268 42.5565 10.1191 39.1955 10.1191 35.5159C10.1191 31.8364 12.4268 28.4754 16.2198 26.0237C20.0105 23.5735 25.2605 22.0508 31.0708 22.0508C36.881 22.0508 42.131 23.5735 45.9218 26.0237C49.7147 28.4754 52.0224 31.8364 52.0224 35.5159Z" stroke="url(#paint25_linear_1_721)" stroke-opacity="0.6" stroke-width="0.437865" shape-rendering="crispEdges"/>
</g>
<g filter="url(#filter12_d_1_721)">
<ellipse cx="31.0709" cy="30.763" rx="13.1771" ry="8.93118" fill="url(#paint26_linear_1_721)" fill-opacity="0.5" shape-rendering="crispEdges"/>
<path d="M44.029 30.763C44.029 33.135 42.6106 35.3077 40.2657 36.8971C37.9219 38.4857 34.6717 39.4753 31.0709 39.4753C27.4701 39.4753 24.2199 38.4857 21.8761 36.8971C19.5311 35.3077 18.1127 33.135 18.1127 30.763C18.1127 28.391 19.5311 26.2183 21.8761 24.629C24.2199 23.0404 27.4701 22.0508 31.0709 22.0508C34.6717 22.0508 37.9219 23.0404 40.2657 24.629C42.6106 26.2183 44.029 28.391 44.029 30.763Z" stroke="url(#paint27_linear_1_721)" stroke-opacity="0.6" stroke-width="0.437865" shape-rendering="crispEdges"/>
</g>
<circle cx="31.0705" cy="48.9991" r="28.1926" fill="url(#paint28_radial_1_721)" fill-opacity="0.9"/>
<defs>
<filter id="filter0_d_1_721" x="81.1331" y="87.5268" width="104.808" height="68.1126" filterUnits="userSpaceOnUse" color-interpolation-filters="sRGB">
<feFlood flood-opacity="0" result="BackgroundImageFix"/>
<feColorMatrix in="SourceAlpha" type="matrix" values="0 0 0 0 0 0 0 0 0 0 0 0 0 0 0 0 0 0 127 0" result="hardAlpha"/>
<feOffset dx="0.437865" dy="0.437865"/>
<feGaussianBlur stdDeviation="1.642"/>
<feComposite in2="hardAlpha" operator="out"/>
<feColorMatrix type="matrix" values="0 0 0 0 0.440043 0 0 0 0 0.20092 0 0 0 0 0.679167 0 0 0 0.2 0"/>
<feBlend mode="normal" in2="BackgroundImageFix" result="effect1_dropShadow_1_721"/>
<feBlend mode="normal" in="SourceGraphic" in2="effect1_dropShadow_1_721" result="shape"/>
</filter>
<filter id="filter1_d_1_721" x="69.3289" y="64.2666" width="128.417" height="77.8523" filterUnits="userSpaceOnUse" color-interpolation-filters="sRGB">
<feFlood flood-opacity="0" result="BackgroundImageFix"/>
<feColorMatrix in="SourceAlpha" type="matrix" values="0 0 0 0 0 0 0 0 0 0 0 0 0 0 0 0 0 0 127 0" result="hardAlpha"/>
<feOffset dx="0.437865" dy="0.437865"/>
<feGaussianBlur stdDeviation="1.642"/>
<feComposite in2="hardAlpha" operator="out"/>
<feColorMatrix type="matrix" values="0 0 0 0 0.440043 0 0 0 0 0.20092 0 0 0 0 0.679167 0 0 0 0.2 0"/>
<feBlend mode="normal" in2="BackgroundImageFix" result="effect1_dropShadow_1_721"/>
<feBlend mode="normal" in="SourceGraphic" in2="effect1_dropShadow_1_721" result="shape"/>
</filter>
<filter id="filter2_d_1_721" x="69.9481" y="42.9628" width="127.178" height="76.2038" filterUnits="userSpaceOnUse" color-interpolation-filters="sRGB">
<feFlood flood-opacity="0" result="BackgroundImageFix"/>
<feColorMatrix in="SourceAlpha" type="matrix" values="0 0 0 0 0 0 0 0 0 0 0 0 0 0 0 0 0 0 127 0" result="hardAlpha"/>
<feOffset dx="0.437865" dy="0.437865"/>
<feGaussianBlur stdDeviation="1.642"/>
<feComposite in2="hardAlpha" operator="out"/>
<feColorMatrix type="matrix" values="0 0 0 0 0.440043 0 0 0 0 0.20092 0 0 0 0 0.679167 0 0 0 0.2 0"/>
<feBlend mode="normal" in2="BackgroundImageFix" result="effect1_dropShadow_1_721"/>
<feBlend mode="normal" in="SourceGraphic" in2="effect1_dropShadow_1_721" result="shape"/>
</filter>
<filter id="filter3_d_1_721" x="101.128" y="29.5539" width="64.8207" height="46.0506" filterUnits="userSpaceOnUse" color-interpolation-filters="sRGB">
<feFlood flood-opacity="0" result="BackgroundImageFix"/>
<feColorMatrix in="SourceAlpha" type="matrix" values="0 0 0 0 0 0 0 0 0 0 0 0 0 0 0 0 0 0 127 0" result="hardAlpha"/>
<feOffset dx="0.437865" dy="0.437865"/>
<feGaussianBlur stdDeviation="1.642"/>
<feComposite in2="hardAlpha" operator="out"/>
<feColorMatrix type="matrix" values="0 0 0 0 0.440043 0 0 0 0 0.20092 0 0 0 0 0.679167 0 0 0 0.2 0"/>
<feBlend mode="normal" in2="BackgroundImageFix" result="effect1_dropShadow_1_721"/>
<feBlend mode="normal" in="SourceGraphic" in2="effect1_dropShadow_1_721" result="shape"/>
</filter>
<filter id="filter4_d_1_721" x="83.4573" y="29.5539" width="100.158" height="67.0621" filterUnits="userSpaceOnUse" color-interpolation-filters="sRGB">
<feFlood flood-opacity="0" result="BackgroundImageFix"/>
<feColorMatrix in="SourceAlpha" type="matrix" values="0 0 0 0 0 0 0 0 0 0 0 0 0 0 0 0 0 0 127 0" result="hardAlpha"/>
<feOffset dx="0.437865" dy="0.437865"/>
<feGaussianBlur stdDeviation="1.642"/>
<feComposite in2="hardAlpha" operator="out"/>
<feColorMatrix type="matrix" values="0 0 0 0 0.440043 0 0 0 0 0.20092 0 0 0 0 0.679167 0 0 0 0.2 0"/>
<feBlend mode="normal" in2="BackgroundImageFix" result="effect1_dropShadow_1_721"/>
<feBlend mode="normal" in="SourceGraphic" in2="effect1_dropShadow_1_721" result="shape"/>
</filter>
<filter id="filter5_d_1_721" x="69.9481" y="42.9628" width="127.178" height="76.2038" filterUnits="userSpaceOnUse" color-interpolation-filters="sRGB">
<feFlood flood-opacity="0" result="BackgroundImageFix"/>
<feColorMatrix in="SourceAlpha" type="matrix" values="0 0 0 0 0 0 0 0 0 0 0 0 0 0 0 0 0 0 127 0" result="hardAlpha"/>
<feOffset dx="0.437865" dy="0.437865"/>
<feGaussianBlur stdDeviation="1.642"/>
<feComposite in2="hardAlpha" operator="out"/>
<feColorMatrix type="matrix" values="0 0 0 0 0.440043 0 0 0 0 0.20092 0 0 0 0 0.679167 0 0 0 0.2 0"/>
<feBlend mode="normal" in2="BackgroundImageFix" result="effect1_dropShadow_1_721"/>
<feBlend mode="normal" in="SourceGraphic" in2="effect1_dropShadow_1_721" result="shape"/>
</filter>
<filter id="filter6_d_1_721" x="69.3289" y="64.2666" width="128.417" height="77.8523" filterUnits="userSpaceOnUse" color-interpolation-filters="sRGB">
<feFlood flood-opacity="0" result="BackgroundImageFix"/>
<feColorMatrix in="SourceAlpha" type="matrix" values="0 0 0 0 0 0 0 0 0 0 0 0 0 0 0 0 0 0 127 0" result="hardAlpha"/>
<feOffset dx="0.437865" dy="0.437865"/>
<feGaussianBlur stdDeviation="1.642"/>
<feComposite in2="hardAlpha" operator="out"/>
<feColorMatrix type="matrix" values="0 0 0 0 0.440043 0 0 0 0 0.20092 0 0 0 0 0.679167 0 0 0 0.2 0"/>
<feBlend mode="normal" in2="BackgroundImageFix" result="effect1_dropShadow_1_721"/>
<feBlend mode="normal" in="SourceGraphic" in2="effect1_dropShadow_1_721" result="shape"/>
</filter>
<filter id="filter7_d_1_721" x="101.128" y="29.5539" width="64.8207" height="46.0506" filterUnits="userSpaceOnUse" color-interpolation-filters="sRGB">
<feFlood flood-opacity="0" result="BackgroundImageFix"/>
<feColorMatrix in="SourceAlpha" type="matrix" values="0 0 0 0 0 0 0 0 0 0 0 0 0 0 0 0 0 0 127 0" result="hardAlpha"/>
<feOffset dx="0.437865" dy="0.437865"/>
<feGaussianBlur stdDeviation="1.642"/>
<feComposite in2="hardAlpha" operator="out"/>
<feColorMatrix type="matrix" values="0 0 0 0 0.440043 0 0 0 0 0.20092 0 0 0 0 0.679167 0 0 0 0.2 0"/>
<feBlend mode="normal" in2="BackgroundImageFix" result="effect1_dropShadow_1_721"/>
<feBlend mode="normal" in="SourceGraphic" in2="effect1_dropShadow_1_721" result="shape"/>
</filter>
<filter id="filter8_d_1_721" x="6.0019" y="45.2129" width="51.0127" height="34.4114" filterUnits="userSpaceOnUse" color-interpolation-filters="sRGB">
<feFlood flood-opacity="0" result="BackgroundImageFix"/>
<feColorMatrix in="SourceAlpha" type="matrix" values="0 0 0 0 0 0 0 0 0 0 0 0 0 0 0 0 0 0 127 0" result="hardAlpha"/>
<feOffset dx="0.437865" dy="0.437865"/>
<feGaussianBlur stdDeviation="1.642"/>
<feComposite in2="hardAlpha" operator="out"/>
<feColorMatrix type="matrix" values="0 0 0 0 0.440043 0 0 0 0 0.20092 0 0 0 0 0.679167 0 0 0 0.2 0"/>
<feBlend mode="normal" in2="BackgroundImageFix" result="effect1_dropShadow_1_721"/>
<feBlend mode="normal" in="SourceGraphic" in2="effect1_dropShadow_1_721" result="shape"/>
</filter>
<filter id="filter9_d_1_721" x="0.660893" y="34.6896" width="61.694" height="38.8178" filterUnits="userSpaceOnUse" color-interpolation-filters="sRGB">
<feFlood flood-opacity="0" result="BackgroundImageFix"/>
<feColorMatrix in="SourceAlpha" type="matrix" values="0 0 0 0 0 0 0 0 0 0 0 0 0 0 0 0 0 0 127 0" result="hardAlpha"/>
<feOffset dx="0.437865" dy="0.437865"/>
<feGaussianBlur stdDeviation="1.642"/>
<feComposite in2="hardAlpha" operator="out"/>
<feColorMatrix type="matrix" values="0 0 0 0 0.440043 0 0 0 0 0.20092 0 0 0 0 0.679167 0 0 0 0.2 0"/>
<feBlend mode="normal" in2="BackgroundImageFix" result="effect1_dropShadow_1_721"/>
<feBlend mode="normal" in="SourceGraphic" in2="effect1_dropShadow_1_721" result="shape"/>
</filter>
<filter id="filter10_d_1_721" x="0.942784" y="25.0518" width="61.1333" height="38.072" filterUnits="userSpaceOnUse" color-interpolation-filters="sRGB">
<feFlood flood-opacity="0" result="BackgroundImageFix"/>
<feColorMatrix in="SourceAlpha" type="matrix" values="0 0 0 0 0 0 0 0 0 0 0 0 0 0 0 0 0 0 127 0" result="hardAlpha"/>
<feOffset dx="0.437865" dy="0.437865"/>
<feGaussianBlur stdDeviation="1.642"/>
<feComposite in2="hardAlpha" operator="out"/>
<feColorMatrix type="matrix" values="0 0 0 0 0.440043 0 0 0 0 0.20092 0 0 0 0 0.679167 0 0 0 0.2 0"/>
<feBlend mode="normal" in2="BackgroundImageFix" result="effect1_dropShadow_1_721"/>
<feBlend mode="normal" in="SourceGraphic" in2="effect1_dropShadow_1_721" result="shape"/>
</filter>
<filter id="filter11_d_1_721" x="7.05408" y="18.9857" width="48.9091" height="33.9362" filterUnits="userSpaceOnUse" color-interpolation-filters="sRGB">
<feFlood flood-opacity="0" result="BackgroundImageFix"/>
<feColorMatrix in="SourceAlpha" type="matrix" values="0 0 0 0 0 0 0 0 0 0 0 0 0 0 0 0 0 0 127 0" result="hardAlpha"/>
<feOffset dx="0.437865" dy="0.437865"/>
<feGaussianBlur stdDeviation="1.642"/>
<feComposite in2="hardAlpha" operator="out"/>
<feColorMatrix type="matrix" values="0 0 0 0 0.440043 0 0 0 0 0.20092 0 0 0 0 0.679167 0 0 0 0.2 0"/>
<feBlend mode="normal" in2="BackgroundImageFix" result="effect1_dropShadow_1_721"/>
<feBlend mode="normal" in="SourceGraphic" in2="effect1_dropShadow_1_721" result="shape"/>
</filter>
<filter id="filter12_d_1_721" x="15.0477" y="18.9857" width="32.9222" height="24.4303" filterUnits="userSpaceOnUse" color-interpolation-filters="sRGB">
<feFlood flood-opacity="0" result="BackgroundImageFix"/>
<feColorMatrix in="SourceAlpha" type="matrix" values="0 0 0 0 0 0 0 0 0 0 0 0 0 0 0 0 0 0 127 0" result="hardAlpha"/>
<feOffset dx="0.437865" dy="0.437865"/>
<feGaussianBlur stdDeviation="1.642"/>
<feComposite in2="hardAlpha" operator="out"/>
<feColorMatrix type="matrix" values="0 0 0 0 0.440043 0 0 0 0 0.20092 0 0 0 0 0.679167 0 0 0 0.2 0"/>
<feBlend mode="normal" in2="BackgroundImageFix" result="effect1_dropShadow_1_721"/>
<feBlend mode="normal" in="SourceGraphic" in2="effect1_dropShadow_1_721" result="shape"/>
</filter>
<radialGradient id="paint0_radial_1_721" cx="0" cy="0" r="1" gradientUnits="userSpaceOnUse" gradientTransform="translate(108.072 162.639) rotate(-64.0757) scale(139.889)">
<stop offset="0.107416" stop-color="white" stop-opacity="0.5"/>
<stop offset="0.328407" stop-color="#8FB5FF" stop-opacity="0.5"/>
<stop offset="0.629496" stop-color="#220C7A" stop-opacity="0"/>
</radialGradient>
<radialGradient id="paint1_radial_1_721" cx="0" cy="0" r="1" gradientUnits="userSpaceOnUse" gradientTransform="translate(133.1 92.4309) rotate(90) scale(92.3062)">
<stop stop-color="#3E5DFF"/>
<stop offset="1" stop-color="#3E5DFF" stop-opacity="0"/>
</radialGradient>
<linearGradient id="paint2_linear_1_721" x1="182.219" y1="114.485" x2="84.0101" y2="121.573" gradientUnits="userSpaceOnUse">
<stop stop-color="#4E53BE" stop-opacity="0.5"/>
<stop offset="0.885417" stop-color="#33CEFF" stop-opacity="0.7"/>
<stop offset="1" stop-color="white" stop-opacity="0.5"/>
</linearGradient>
<linearGradient id="paint3_linear_1_721" x1="141.684" y1="165.279" x2="147.808" y2="97.1886" gradientUnits="userSpaceOnUse">
<stop stop-color="white"/>
<stop offset="1" stop-color="white" stop-opacity="0"/>
</linearGradient>
<radialGradient id="paint4_radial_1_721" cx="0" cy="0" r="1" gradientUnits="userSpaceOnUse" gradientTransform="translate(70.783 115.121) rotate(-19.6638) scale(132.351)">
<stop offset="0.249306" stop-color="white"/>
<stop offset="0.48315" stop-color="#8FF2FF" stop-opacity="0.5"/>
<stop offset="0.627037" stop-color="#220C7A" stop-opacity="0.1"/>
</radialGradient>
<linearGradient id="paint5_linear_1_721" x1="187.761" y1="100.694" x2="72.226" y2="104.362" gradientUnits="userSpaceOnUse">
<stop stop-color="#4E53BE" stop-opacity="0.1"/>
<stop offset="1" stop-color="#33CEFF"/>
</linearGradient>
<linearGradient id="paint6_linear_1_721" x1="178.825" y1="77.5298" x2="72.8693" y2="82.296" gradientUnits="userSpaceOnUse">
<stop stop-color="#4E53BE" stop-opacity="0.1"/>
<stop offset="0.997187" stop-color="#33CEFF"/>
</linearGradient>
<linearGradient id="paint7_linear_1_721" x1="143.64" y1="130.563" x2="150.033" y2="53.4275" gradientUnits="userSpaceOnUse">
<stop stop-color="white"/>
<stop offset="1" stop-color="white" stop-opacity="0"/>
</linearGradient>
<linearGradient id="paint8_linear_1_721" x1="162.226" y1="47.8684" x2="103.948" y2="51.7562" gradientUnits="userSpaceOnUse">
<stop stop-color="#4E53BE" stop-opacity="0.1"/>
<stop offset="1" stop-color="#33CEFF" stop-opacity="0.9"/>
</linearGradient>
<radialGradient id="paint9_radial_1_721" cx="0" cy="0" r="1" gradientUnits="userSpaceOnUse" gradientTransform="translate(142.094 179.452) rotate(-83.1976) scale(134.104)">
<stop offset="0.338542" stop-color="#68FFF6" stop-opacity="0.1"/>
<stop offset="0.802083" stop-color="#FFBFE9"/>
<stop offset="1" stop-color="white"/>
</radialGradient>
<linearGradient id="paint10_linear_1_721" x1="138.404" y1="92.8941" x2="141.531" y2="38.0438" gradientUnits="userSpaceOnUse">
<stop stop-color="white"/>
<stop offset="1" stop-color="white" stop-opacity="0"/>
</linearGradient>
<linearGradient id="paint11_linear_1_721" x1="136.096" y1="116.358" x2="143.236" y2="51.3604" gradientUnits="userSpaceOnUse">
<stop stop-color="white"/>
<stop offset="1" stop-color="white" stop-opacity="0"/>
</linearGradient>
<linearGradient id="paint12_linear_1_721" x1="137.539" y1="139.588" x2="138.743" y2="71.1892" gradientUnits="userSpaceOnUse">
<stop stop-color="white"/>
<stop offset="1" stop-color="white" stop-opacity="0"/>
</linearGradient>
<linearGradient id="paint13_linear_1_721" x1="138.191" y1="80.4545" x2="142.435" y2="36.8322" gradientUnits="userSpaceOnUse">
<stop stop-color="white"/>
<stop offset="1" stop-color="white" stop-opacity="0"/>
</linearGradient>
<radialGradient id="paint14_radial_1_721" cx="0" cy="0" r="1" gradientUnits="userSpaceOnUse" gradientTransform="translate(35.4186 52.1632) rotate(90) scale(35.3655)">
<stop stop-color="#FF65C1"/>
<stop offset="1" stop-color="#FF65C1" stop-opacity="0"/>
</radialGradient>
<linearGradient id="paint15_linear_1_721" x1="53.2927" y1="58.9675" x2="8.86198" y2="62.1743" gradientUnits="userSpaceOnUse">
<stop stop-color="#4E53BE" stop-opacity="0.5"/>
<stop offset="0.885417" stop-color="#FB33FF" stop-opacity="0.5"/>
<stop offset="1" stop-color="white" stop-opacity="0.5"/>
</linearGradient>
<linearGradient id="paint16_linear_1_721" x1="34.9545" y1="81.9474" x2="37.7247" y2="51.1426" gradientUnits="userSpaceOnUse">
<stop stop-color="white"/>
<stop offset="1" stop-color="white" stop-opacity="0"/>
</linearGradient>
<radialGradient id="paint17_radial_1_721" cx="0" cy="0" r="1" gradientUnits="userSpaceOnUse" gradientTransform="translate(2.87787 59.2548) rotate(-19.6638) scale(59.877)">
<stop offset="0.249306" stop-color="white"/>
<stop offset="0.48315" stop-color="#FF8FED" stop-opacity="0.5"/>
<stop offset="0.627037" stop-color="#220C7A" stop-opacity="0.5"/>
</radialGradient>
<linearGradient id="paint18_linear_1_721" x1="58.633" y1="50.1704" x2="3.56621" y2="54.4265" gradientUnits="userSpaceOnUse">
<stop stop-color="#4E53BE" stop-opacity="0.5"/>
<stop offset="0.885417" stop-color="#FB33FF" stop-opacity="0.5"/>
<stop offset="1" stop-color="white" stop-opacity="0.5"/>
</linearGradient>
<linearGradient id="paint19_linear_1_721" x1="35.8876" y1="76.787" x2="38.887" y2="41.0705" gradientUnits="userSpaceOnUse">
<stop stop-color="white"/>
<stop offset="1" stop-color="white" stop-opacity="0"/>
</linearGradient>
<radialGradient id="paint20_radial_1_721" cx="0" cy="0" r="1" gradientUnits="userSpaceOnUse" gradientTransform="translate(37.7816 69.8821) rotate(-107.749) scale(41.948)">
<stop offset="0.223958" stop-color="white"/>
<stop offset="0.466382" stop-color="#FFCEF1"/>
<stop offset="0.682292" stop-color="#B6B9FF"/>
<stop offset="0.881791" stop-color="white"/>
</radialGradient>
<radialGradient id="paint21_radial_1_721" cx="0" cy="0" r="1" gradientUnits="userSpaceOnUse" gradientTransform="translate(41.3884 69.8821) rotate(-100.377) scale(57.2826)">
<stop stop-color="white"/>
<stop offset="1" stop-color="white" stop-opacity="0"/>
</radialGradient>
<linearGradient id="paint22_linear_1_721" x1="58.3542" y1="40.2405" x2="3.85614" y2="44.5084" gradientUnits="userSpaceOnUse">
<stop stop-color="#4E53BE" stop-opacity="0.5"/>
<stop offset="0.885417" stop-color="#FB33FF" stop-opacity="0.5"/>
<stop offset="1" stop-color="white" stop-opacity="0.5"/>
</linearGradient>
<linearGradient id="paint23_linear_1_721" x1="35.8401" y1="66.2415" x2="38.7323" y2="31.3447" gradientUnits="userSpaceOnUse">
<stop stop-color="white"/>
<stop offset="1" stop-color="white" stop-opacity="0"/>
</linearGradient>
<linearGradient id="paint24_linear_1_721" x1="52.2413" y1="32.5541" x2="9.90021" y2="35.5159" gradientUnits="userSpaceOnUse">
<stop stop-color="#4E53BE" stop-opacity="0.5"/>
<stop offset="0.885417" stop-color="#FB33FF" stop-opacity="0.5"/>
<stop offset="1" stop-color="white" stop-opacity="0.5"/>
</linearGradient>
<linearGradient id="paint25_linear_1_721" x1="34.771" y1="55.1418" x2="37.579" y2="24.8784" gradientUnits="userSpaceOnUse">
<stop stop-color="white"/>
<stop offset="1" stop-color="white" stop-opacity="0"/>
</linearGradient>
<linearGradient id="paint26_linear_1_721" x1="44.2479" y1="28.8299" x2="17.8822" y2="30.5888" gradientUnits="userSpaceOnUse">
<stop stop-color="#4E53BE" stop-opacity="0.5"/>
<stop offset="0.885417" stop-color="#FB33FF" stop-opacity="0.5"/>
<stop offset="1" stop-color="white" stop-opacity="0.5"/>
</linearGradient>
<linearGradient id="paint27_linear_1_721" x1="33.374" y1="43.5722" x2="35.2941" y2="23.837" gradientUnits="userSpaceOnUse">
<stop stop-color="white"/>
<stop offset="1" stop-color="white" stop-opacity="0"/>
</linearGradient>
<radialGradient id="paint28_radial_1_721" cx="0" cy="0" r="1" gradientUnits="userSpaceOnUse" gradientTransform="translate(19.7477 80.753) rotate(-65.1363) scale(88.9003)">
<stop offset="0.249306" stop-color="white"/>
<stop offset="0.48315" stop-color="#FF8FED" stop-opacity="0.5"/>
<stop offset="0.627037" stop-color="#220C7A" stop-opacity="0"/>
</radialGradient>
</defs>
</svg>
