<svg width="211" height="421" viewBox="0 0 211 421" fill="none" xmlns="http://www.w3.org/2000/svg">
<path fill-rule="evenodd" clip-rule="evenodd" d="M92.0491 160.677C92.0491 160.677 85.4271 159.717 83.677 166.716C77.2597 169.05 79.0103 176.05 79.0103 176.05C79.0103 176.05 75.7869 181.549 82.1895 184.366C82.7015 190 89.1041 188.976 89.1041 188.976C89.1041 188.976 90.6408 193.33 95.5067 191.536C100.757 195.62 110.651 194.8 114.164 189.809C121.13 195.008 133.251 188.661 131.73 183.914C139.866 183.421 143.81 174.793 139.043 167.463C142.705 161.666 138.531 158.244 138.531 158.244C138.531 158.244 139.683 144.927 130.464 143.134C125.726 135.963 115.482 141.725 115.482 141.725C115.482 141.725 108.695 140.317 106.263 146.207C98.6791 147.374 99.035 151.542 98.4517 155.042C91.6649 155.427 92.0491 160.677 92.0491 160.677Z" fill="#253368"/>
<path fill-rule="evenodd" clip-rule="evenodd" d="M113.092 154.174C118.408 155.108 120.025 151.084 120.025 151.084C120.025 151.084 122.219 145.418 122.781 148.896C123.079 150.745 125.938 148.292 127.252 150.263C128.136 151.589 125.925 153.298 128.799 156.835C130.464 158.884 123.896 160.519 127.948 164.295C127.948 164.295 125.067 168.905 130.016 170.408L130.54 175.814C130.845 178.959 128.37 181.682 125.21 181.677C122.197 181.672 119.782 179.179 119.873 176.167L120.073 169.577C112.391 169.577 112.016 159.018 113.092 154.174Z" fill="#FFC999"/>
<path d="M122.411 159.795C122.545 159.662 122.761 159.662 122.894 159.795C123.027 159.928 123.027 160.144 122.894 160.278C122.721 160.451 122.408 160.698 121.968 160.943C121.099 161.426 120.103 161.677 119.007 161.571C118.819 161.553 118.682 161.386 118.7 161.198C118.718 161.011 118.885 160.874 119.072 160.892C120.02 160.984 120.881 160.767 121.636 160.347C121.858 160.223 122.054 160.091 122.221 159.959L122.307 159.889C122.357 159.847 122.392 159.815 122.411 159.795Z" fill="#F5222D"/>
<path d="M118.477 154.805L118.477 154.714C118.488 154.597 118.581 154.503 118.701 154.494C118.822 154.486 118.927 154.566 118.954 154.68L118.961 154.729L118.961 154.74C118.97 154.973 118.928 155.33 118.793 155.794C118.614 156.415 118.303 157.094 117.834 157.822L117.749 157.95L117.884 158.034L118.212 158.233C118.53 158.424 118.817 158.591 119.075 158.734L119.202 158.803C119.328 158.873 119.439 158.932 119.535 158.981L119.732 159.079C119.853 159.135 119.906 159.279 119.85 159.4C119.794 159.522 119.65 159.575 119.528 159.519L119.425 159.469L119.236 159.372C119.182 159.344 119.125 159.314 119.064 159.28L118.969 159.229C118.506 158.976 117.943 158.645 117.278 158.228C117.161 158.154 117.129 157.998 117.208 157.884C117.776 157.07 118.135 156.324 118.328 155.659C118.437 155.28 118.477 154.992 118.477 154.805Z" fill="#DD936F"/>
<path d="M125.883 154.43C126.065 154.43 126.211 154.576 126.211 154.758C126.211 156.018 125.262 157.051 124.076 157.051C122.891 157.051 121.942 156.018 121.942 154.758C121.942 154.576 122.089 154.43 122.27 154.43C122.451 154.43 122.598 154.576 122.598 154.758C122.598 155.668 123.266 156.395 124.076 156.395C124.886 156.395 125.556 155.668 125.556 154.758C125.556 154.576 125.702 154.43 125.883 154.43Z" fill="#253368"/>
<path d="M117.243 154.655C117.415 154.655 117.554 154.794 117.554 154.966C117.554 156.212 116.701 157.243 115.617 157.243C114.533 157.243 113.68 156.212 113.68 154.966C113.68 154.794 113.819 154.655 113.991 154.655C114.163 154.655 114.302 154.794 114.302 154.966C114.302 155.891 114.905 156.621 115.617 156.621C116.328 156.621 116.932 155.891 116.932 154.966C116.932 154.794 117.071 154.655 117.243 154.655Z" fill="#253368"/>
<path d="M122.145 150.822C123.398 150.419 124.724 150.366 125.976 150.894C126.207 150.992 126.432 151.108 126.649 151.244C126.803 151.34 126.85 151.542 126.754 151.696C126.658 151.85 126.455 151.896 126.302 151.8C126.114 151.683 125.92 151.582 125.722 151.499C124.635 151.041 123.463 151.088 122.345 151.447C122.204 151.492 122.074 151.54 121.955 151.588L121.84 151.636C121.753 151.674 121.694 151.702 121.667 151.716C121.507 151.801 121.308 151.74 121.224 151.579C121.139 151.419 121.201 151.221 121.361 151.136C121.515 151.055 121.784 150.938 122.145 150.822Z" fill="#253368"/>
<path d="M124.665 168.172C124.783 168.108 124.93 168.152 124.994 168.269C125.058 168.387 125.014 168.534 124.897 168.598C123.338 169.447 121.715 169.875 120.084 169.897C119.95 169.899 119.84 169.792 119.838 169.658C119.836 169.524 119.943 169.414 120.077 169.412C121.63 169.391 123.175 168.984 124.665 168.172Z" fill="#DD936F"/>
<path fill-rule="evenodd" clip-rule="evenodd" d="M106.227 228.318C102.68 227.794 100.228 224.493 100.753 220.946L105.858 186.378C106.381 182.83 109.682 180.379 113.23 180.903C116.776 181.427 119.227 184.727 118.704 188.275L113.598 222.843C113.075 226.391 109.774 228.842 106.227 228.318Z" fill="#FFC999"/>
<path fill-rule="evenodd" clip-rule="evenodd" d="M116.539 202.929L118.704 188.274C119.226 184.742 116.762 181.424 113.229 180.903C109.697 180.381 106.38 182.845 105.858 186.378L103.714 200.892L116.539 202.929Z" fill="white"/>
<path d="M113.443 180.737C117.04 181.268 119.56 184.611 119.101 188.202L119.083 188.331L116.918 202.985C116.904 203.08 116.823 203.15 116.729 203.152L116.694 203.149L103.869 201.113C103.763 201.096 103.69 200.996 103.707 200.889C103.722 200.794 103.803 200.726 103.895 200.724L103.93 200.727L116.56 202.732L118.696 188.274C119.195 184.89 116.871 181.71 113.514 181.144L113.386 181.124C113.279 181.108 113.205 181.008 113.221 180.902C113.235 180.807 113.315 180.738 113.408 180.735L113.443 180.737Z" fill="#4E5C93"/>
<path fill-rule="evenodd" clip-rule="evenodd" d="M83.5911 216.928C83.54 218.195 84.4947 219.278 85.7578 219.387L110.147 221.486C112.395 221.605 114.307 219.864 114.397 217.615C114.49 215.346 112.693 213.447 110.423 213.412L85.8414 214.655C84.6164 214.717 83.6409 215.702 83.5911 216.928Z" fill="#FFC999"/>
<path fill-rule="evenodd" clip-rule="evenodd" d="M81.202 213.717C81.202 213.717 85.5828 213.37 86.704 215.705C87.7201 217.82 85.7328 219.088 85.7328 219.088C85.7328 219.088 83.9558 220.661 81.462 221.521C79.8189 222.086 76.5844 222.845 76.1707 222.022C75.631 220.949 79.3419 220.303 79.2036 219.441C79.0622 218.555 78.2853 218.632 76.4621 218.225C75.3231 217.97 74.0998 218.168 73.1747 217.769C71.3676 216.987 74.5879 213.69 81.202 213.717Z" fill="#FFC999"/>
<path d="M73.4158 216.6C75.0524 216.2 76.5325 216.268 77.7877 216.624C78.015 216.688 78.2156 216.758 78.388 216.827L78.4994 216.874C78.5475 216.895 78.5839 216.912 78.6085 216.925C78.7276 216.986 78.7747 217.132 78.7136 217.251C78.6524 217.37 78.5063 217.417 78.3871 217.356L78.3015 217.317C78.2748 217.305 78.243 217.292 78.2063 217.277C78.0497 217.214 77.8655 217.15 77.6554 217.09C76.477 216.756 75.0812 216.692 73.5309 217.071C73.4008 217.103 73.2696 217.023 73.2378 216.893C73.206 216.763 73.2857 216.632 73.4158 216.6Z" fill="#DD936F"/>
<path d="M75.3443 215.253C76.5527 215.055 77.8652 215.063 79.1338 215.415C79.2629 215.451 79.3384 215.585 79.3025 215.714C79.2667 215.843 79.133 215.919 79.0039 215.883C77.8123 215.551 76.5674 215.544 75.4227 215.732C75.3024 215.752 75.1915 215.772 75.0912 215.793L74.9943 215.814C74.9209 215.831 74.871 215.843 74.8468 215.85C74.7177 215.886 74.5841 215.81 74.5483 215.681C74.5126 215.552 74.5883 215.419 74.7173 215.383L74.8419 215.352L74.8878 215.341C75.0213 215.311 75.1742 215.281 75.3443 215.253Z" fill="#DD936F"/>
<path d="M76.5739 214.171C77.8875 214.023 78.9631 214.067 79.8022 214.231L79.9829 214.269C80.1776 214.314 80.3158 214.356 80.3977 214.388C80.5223 214.438 80.5835 214.578 80.5344 214.703C80.4853 214.828 80.3444 214.889 80.2198 214.84L80.1541 214.816C80.0614 214.786 79.9132 214.747 79.709 214.707C78.9184 214.552 77.8925 214.511 76.6281 214.653C76.495 214.668 76.375 214.572 76.36 214.439C76.345 214.306 76.4408 214.186 76.5739 214.171Z" fill="#DD936F"/>
<path fill-rule="evenodd" clip-rule="evenodd" d="M70.9181 322.99L55.6456 264.252C54.5453 260.02 57.1854 255.723 61.4575 254.791C65.7289 253.86 69.9181 256.669 70.6784 260.975L80.3675 321.144C80.8604 323.938 79.9319 326.219 77.1591 326.824C74.3868 327.428 71.6324 325.736 70.9181 322.99Z" fill="#FFC999"/>
<path fill-rule="evenodd" clip-rule="evenodd" d="M121.303 233.855C119.056 229.219 113.433 227.342 108.852 229.699L59.6015 255.037C55.8082 256.989 54.2654 261.611 56.1267 265.45C57.9873 269.288 62.5717 270.941 66.4534 269.171L116.853 246.203C121.541 244.067 123.55 238.49 121.303 233.855Z" fill="#FFC999"/>
<path fill-rule="evenodd" clip-rule="evenodd" d="M72.1018 327.583L81.5649 325.827L79.3207 310.761L68.4561 312.776L72.1018 327.583Z" fill="white"/>
<path d="M79.099 313.569C79.2705 313.537 79.4354 313.65 79.4673 313.822C79.4964 313.979 79.4037 314.131 79.2559 314.179L79.2142 314.19L69.1844 316.051C69.0128 316.083 68.8479 315.969 68.8161 315.798C68.7869 315.641 68.8797 315.489 69.0275 315.44L69.0691 315.43L79.099 313.569Z" fill="#E4EBF7"/>
<path fill-rule="evenodd" clip-rule="evenodd" d="M71.0488 327.168L81.453 325.238L85.5143 344.199L62.0719 348.547L61.4714 345.632C61.2544 344.559 61.8371 343.486 62.8544 343.083L68.7382 340.099L71.5978 337.686C72.4595 336.959 72.8517 335.821 72.6169 334.718C72.1116 332.349 71.2615 328.329 71.0488 327.168Z" fill="#4E5C93"/>
<path fill-rule="evenodd" clip-rule="evenodd" d="M85.4034 344.862L62.0318 349.197C61.8099 349.238 61.5972 349.092 61.556 348.87L61.0698 346.249C61.0292 346.028 61.1749 345.815 61.3968 345.774L84.7685 341.438C84.9897 341.397 85.203 341.543 85.2436 341.765L85.7298 344.386C85.771 344.608 85.6247 344.82 85.4034 344.862Z" fill="#CCD7EE"/>
<path fill-rule="evenodd" clip-rule="evenodd" d="M61.3969 345.774C61.0902 344.121 62.0276 342.491 63.6098 341.925L68.7363 340.09L69.8507 344.145L61.3969 345.774Z" fill="#CCD7EE"/>
<path d="M84.7385 341.279C84.8263 341.263 84.9106 341.321 84.9269 341.409C84.9412 341.486 84.8986 341.56 84.8289 341.588L84.7975 341.597L61.4264 345.933C61.3386 345.949 61.2543 345.891 61.238 345.803C61.2237 345.726 61.2663 345.652 61.336 345.624L61.3674 345.615L84.7385 341.279Z" fill="#A3B5D6"/>
<path d="M72.5998 333.73L72.6948 333.734C72.722 333.736 72.7533 333.738 72.7883 333.741C72.9315 333.753 73.0903 333.772 73.2611 333.799C73.7495 333.878 74.2385 334.009 74.6982 334.208C75.0665 334.367 75.4006 334.563 75.6921 334.801C75.9004 334.971 75.8144 335.307 75.55 335.357C75.2923 335.404 74.917 335.526 74.4586 335.704L74.3315 335.754C74.2002 335.806 74.0641 335.863 73.9242 335.922C73.7162 336.01 73.5063 336.102 73.2992 336.196L73.1912 336.246L73.2186 336.261C73.6368 336.493 74.0555 336.78 74.4546 337.125L74.6244 337.277C74.828 337.464 74.7093 337.804 74.4333 337.824C74.1163 337.847 73.7532 337.911 73.3535 338.01C72.9642 338.106 72.55 338.234 72.1227 338.385C72.0333 338.417 71.9446 338.449 71.8569 338.482L71.6401 338.564L71.7058 338.588C71.8464 338.643 71.9852 338.708 72.1211 338.784L72.256 338.864C72.4682 338.996 72.666 339.154 72.8464 339.34C72.968 339.465 72.9651 339.665 72.84 339.787C72.7149 339.908 72.5149 339.906 72.3932 339.78C72.249 339.632 72.0909 339.506 71.9211 339.399C71.4569 339.109 70.9835 339.001 70.6375 338.992L70.5653 338.992L70.522 338.991C70.2134 338.963 70.1244 338.529 70.4219 338.39L70.5382 338.337C70.6302 338.296 70.7353 338.25 70.8517 338.201C71.184 338.061 71.5417 337.921 71.9117 337.79C72.3571 337.632 72.7905 337.498 73.2015 337.396C73.325 337.366 73.4456 337.338 73.5632 337.314L73.6567 337.295L73.5637 337.227C73.4021 337.111 73.2387 337.004 73.0751 336.907L72.9113 336.813C72.7973 336.749 72.6897 336.694 72.5902 336.646L72.4935 336.601C72.4203 336.568 72.3699 336.548 72.346 336.539C72.0861 336.442 72.0681 336.081 72.3171 335.959L72.6189 335.815L72.7244 335.765C73.035 335.62 73.3581 335.475 73.6775 335.34L73.9603 335.222C74.0065 335.204 74.0523 335.185 74.0975 335.167L74.3651 335.063C74.4083 335.047 74.4508 335.031 74.4925 335.015L74.7394 334.928L74.7112 334.913L74.5815 334.848L74.4476 334.788C74.0407 334.612 73.6012 334.494 73.1612 334.423C73.0455 334.405 72.9362 334.391 72.8349 334.38L72.6272 334.363C72.6088 334.362 72.5945 334.362 72.5845 334.362C72.4101 334.357 72.2721 334.213 72.2763 334.038C72.2805 333.864 72.4253 333.726 72.5998 333.73Z" fill="#E4EBF7"/>
<path d="M73.198 330.78C72.7587 330.818 72.3899 330.869 72.1193 330.917L72.013 330.936C71.9776 330.943 71.9437 330.956 71.9126 330.974C71.5443 331.191 71.3672 331.475 71.4331 331.793C71.4803 332.022 71.6374 332.202 71.8629 332.362C72.0004 332.46 72.1346 332.53 72.2307 332.571L72.2673 332.594L72.6003 332.781C72.7063 332.839 72.8196 332.901 72.9393 332.966C73.5092 333.273 74.1092 333.581 74.7118 333.869C75.107 334.057 75.4908 334.231 75.8588 334.387C77.093 334.909 78.0835 335.203 78.7724 335.203C79.7609 335.202 80.1662 334.565 79.7702 333.476C79.1699 331.823 77.6188 330.993 75.4832 330.78C74.7368 330.706 73.9627 330.713 73.198 330.78ZM75.4207 331.409C77.29 331.595 78.6057 332.278 79.1351 333.584L79.1763 333.692C79.4273 334.382 79.3073 334.571 78.7722 334.571C78.1929 334.571 77.265 334.295 76.105 333.805C75.7461 333.653 75.371 333.483 74.9839 333.298C74.3916 333.016 73.8008 332.713 73.2395 332.41L72.906 332.228L72.5133 332.007C72.4209 331.965 72.323 331.914 72.2283 331.847C72.1214 331.771 72.0588 331.699 72.0519 331.666L72.0521 331.661C72.0549 331.648 72.0768 331.62 72.1534 331.569L72.1881 331.546L72.3195 331.523C72.5625 331.483 72.8803 331.442 73.2526 331.409C73.9809 331.346 74.717 331.339 75.4207 331.409Z" fill="#E4EBF7"/>
<path fill-rule="evenodd" clip-rule="evenodd" d="M136.609 239.63C134.093 235.135 128.723 233.394 124.716 235.776L81.6383 261.39C78.3208 263.362 77.3348 267.909 79.418 271.632C81.5018 275.354 85.8919 276.893 89.309 275.097L133.672 251.782C137.799 249.614 139.125 244.126 136.609 239.63Z" fill="#FFC999"/>
<path fill-rule="evenodd" clip-rule="evenodd" d="M63.6084 332.243C60.9204 331.335 59.4279 328.467 60.2283 325.745L77.3455 267.517C78.5786 263.323 83.0529 260.995 87.1946 262.394C91.337 263.793 93.4847 268.356 91.9228 272.439L70.236 329.124C69.2224 331.774 66.2971 333.151 63.6084 332.243Z" fill="#FFC999"/>
<path fill-rule="evenodd" clip-rule="evenodd" d="M58.8806 329.967L68.5905 333.654L74.8624 318.218L63.7157 313.984L58.8806 329.967Z" fill="white"/>
<path d="M62.125 318.496C62.1809 318.346 62.3384 318.264 62.4902 318.298L62.5314 318.31L72.0904 321.874C72.2539 321.935 72.337 322.117 72.2761 322.281C72.2202 322.431 72.0626 322.513 71.9108 322.479L71.8697 322.466L62.3106 318.903C62.1471 318.842 62.064 318.66 62.125 318.496Z" fill="#E4EBF7"/>
<path fill-rule="evenodd" clip-rule="evenodd" d="M59.6064 327.63L69.5213 331.327L63.2515 349.675L40.9106 341.346L41.896 338.538C42.2611 337.507 43.3128 336.886 44.3922 337.064L50.9731 337.531L54.6667 336.932C55.7793 336.752 56.7008 335.978 57.0671 334.911C57.8533 332.62 59.1915 328.734 59.6064 327.63Z" fill="#4E5C93"/>
<path fill-rule="evenodd" clip-rule="evenodd" d="M40.3566 341.983C40.1457 341.904 40.0382 341.669 40.1168 341.458L41.0481 338.96C41.1268 338.749 41.3616 338.642 41.5724 338.721L63.8456 347.024C64.0565 347.103 64.164 347.338 64.0854 347.549L63.1541 350.047C63.0754 350.258 62.8406 350.365 62.6292 350.287L40.3566 341.983Z" fill="#CCD7EE"/>
<path fill-rule="evenodd" clip-rule="evenodd" d="M41.1627 338.464C41.7497 336.89 44.0068 335.974 45.6548 336.302L50.3811 337.366L49.2501 341.417L41.1627 338.464Z" fill="#CCD7EE"/>
<path d="M41.169 338.638C41.1963 338.565 41.271 338.523 41.3453 338.535L41.3769 338.543L63.6489 346.847C63.7326 346.878 63.7751 346.971 63.7439 347.055C63.7166 347.128 63.6419 347.17 63.5677 347.158L63.536 347.15L41.264 338.846C41.1803 338.815 41.1378 338.722 41.169 338.638Z" fill="#A3B5D6"/>
<path d="M56.0171 335.519C56.1433 335.399 56.3433 335.403 56.4638 335.529L56.5261 335.597C56.5854 335.664 56.6625 335.756 56.7516 335.871C56.958 336.137 57.1564 336.433 57.3312 336.755C57.6356 337.315 57.8362 337.892 57.8951 338.472C57.9223 338.74 57.624 338.917 57.4021 338.765C57.1497 338.592 56.7145 338.377 56.1539 338.14C55.8831 338.026 55.5956 337.912 55.3031 337.802L55.1047 337.727L55.1204 337.779C55.1546 337.9 55.1868 338.027 55.2163 338.158L55.2585 338.359C55.329 338.718 55.3749 339.089 55.3909 339.47C55.4024 339.746 55.0782 339.903 54.8687 339.722C54.5547 339.451 54.1382 339.175 53.6431 338.9C53.3258 338.724 52.9884 338.555 52.6426 338.395L52.3679 338.271L52.3933 338.325C52.5597 338.698 52.6593 339.101 52.6731 339.529L52.6745 339.673C52.6722 339.848 52.529 339.987 52.3545 339.985C52.18 339.983 52.0404 339.84 52.0426 339.665C52.0481 339.24 51.9479 338.844 51.7689 338.482C51.675 338.292 51.5655 338.123 51.4507 337.979L51.3892 337.905C51.3521 337.862 51.3233 337.832 51.3061 337.816C51.0558 337.581 51.3071 337.172 51.6299 337.288L51.8357 337.366L52.0893 337.467C52.1779 337.503 52.2702 337.542 52.3657 337.582C52.912 337.814 53.4523 338.071 53.9498 338.347C54.1853 338.478 54.4051 338.61 54.6076 338.742L54.6923 338.799L54.6744 338.679L54.6385 338.481C54.5774 338.17 54.4997 337.886 54.4142 337.636L54.3553 337.472C54.332 337.411 54.3131 337.366 54.3002 337.338C54.1847 337.086 54.4268 336.818 54.6893 336.907L55.0243 337.025C55.0892 337.048 55.157 337.073 55.2272 337.099C55.6286 337.246 56.0282 337.402 56.3994 337.558C56.6291 337.655 56.8394 337.749 57.0281 337.839L57.1314 337.889L57.1028 337.798C57.0364 337.6 56.9526 337.402 56.8533 337.204L56.776 337.057C56.6187 336.767 56.4391 336.499 56.2526 336.259L56.1637 336.147C56.0951 336.063 56.0408 336.001 56.0067 335.966C55.8862 335.839 55.8909 335.639 56.0171 335.519Z" fill="#E4EBF7"/>
<path d="M57.4468 333.871C56.7837 333.866 56.4833 334.251 56.6018 334.773C56.6298 334.896 56.6787 335.02 56.7425 335.144C56.7999 335.256 56.8572 335.346 56.8985 335.404L56.953 335.504L57.163 335.869C57.238 335.997 57.3183 336.133 57.4034 336.275C57.8083 336.951 58.2376 337.626 58.6729 338.258C59.0178 338.759 59.3527 339.212 59.6732 339.605C60.3534 340.439 60.9441 340.98 61.4561 341.174C62.1801 341.449 62.7095 341.035 62.8993 340.059C63.2367 338.32 62.3181 336.801 60.5728 335.515C59.9661 335.068 59.2954 334.678 58.6051 334.344C58.2578 334.176 57.9563 334.046 57.7236 333.955L57.5518 333.89C57.5181 333.878 57.4826 333.871 57.4468 333.871ZM57.3166 334.503L57.3867 334.503L57.5806 334.578C57.7854 334.661 58.0405 334.773 58.33 334.913C58.9876 335.231 59.6256 335.602 60.198 336.024C61.7681 337.18 62.56 338.49 62.2789 339.938C62.1565 340.568 61.9878 340.7 61.6802 340.584C61.3033 340.441 60.7765 339.958 60.163 339.205C59.8542 338.827 59.5292 338.387 59.1932 337.9C58.7663 337.28 58.344 336.615 57.9454 335.95L57.7087 335.55L57.4449 335.09C57.4396 335.081 57.435 335.073 57.431 335.065C57.3866 335 57.3456 334.936 57.3046 334.856C57.2631 334.775 57.2328 334.698 57.218 334.633L57.2079 334.584C57.1977 334.523 57.2141 334.507 57.3166 334.503Z" fill="#E4EBF7"/>
<path fill-rule="evenodd" clip-rule="evenodd" d="M109.072 188.945C107.958 191.84 105.871 196.834 105.775 200.053C105.62 205.271 109.241 208.918 109.241 208.918C109.241 208.918 109.179 207.39 110.355 220.81C125.997 222.549 135.679 219.041 135.679 219.041L135.153 215.498L137.134 206.917C137.134 206.917 138.463 203.684 141.159 196.49C143.033 191.488 142.501 185.467 142.003 182.261C141.789 180.888 140.753 179.787 139.394 179.496C134.645 178.479 132.877 178.549 132.877 178.549L132.243 175.499C132.135 174.976 131.658 174.613 131.126 174.647L119.753 175.364C119.265 175.395 118.859 175.752 118.767 176.234L118.139 179.536L111.188 181.36C110.097 181.646 109.32 182.612 109.276 183.74L109.072 188.945Z" fill="white"/>
<path d="M129.689 178.715C129.797 178.708 129.889 178.79 129.896 178.898C129.902 178.994 129.838 179.078 129.748 179.1L129.713 179.105L119.473 179.751C119.366 179.758 119.273 179.676 119.266 179.569C119.26 179.473 119.324 179.389 119.414 179.366L119.449 179.361L129.689 178.715Z" fill="#4E5C93"/>
<path d="M132.778 177.702C132.875 177.602 133.033 177.6 133.133 177.696C133.221 177.782 133.233 177.917 133.167 178.016L133.138 178.051L120.128 191.461C119.997 191.596 119.775 191.543 119.713 191.375L119.703 191.337L117.326 179.739C117.299 179.603 117.386 179.471 117.522 179.443C117.644 179.418 117.763 179.486 117.806 179.599L117.818 179.638L120.099 190.771L132.778 177.702Z" fill="#CCD7EE"/>
<path fill-rule="evenodd" clip-rule="evenodd" d="M115.556 193.478C114.542 195.464 115.205 197.834 117.038 198.771C118.871 199.707 121.179 198.855 122.194 196.868C123.209 194.881 122.546 192.512 120.713 191.576C118.88 190.639 116.571 191.491 115.556 193.478Z" fill="#CCD7EE"/>
<path fill-rule="evenodd" clip-rule="evenodd" d="M115.148 193.494C114.133 195.481 114.796 197.85 116.629 198.787C118.462 199.723 120.77 198.871 121.785 196.885C122.8 194.897 122.137 192.528 120.304 191.592C118.471 190.655 116.162 191.507 115.148 193.494Z" fill="#E4EBF7"/>
<path fill-rule="evenodd" clip-rule="evenodd" d="M115.89 193.782C115.102 195.325 115.617 197.165 117.04 197.892C118.464 198.619 120.256 197.957 121.043 196.415C121.831 194.872 121.316 193.032 119.894 192.306C118.47 191.579 116.678 192.24 115.89 193.782Z" fill="#8352FD"/>
<path d="M141.985 182.067C142.092 182.057 142.188 182.136 142.197 182.243L142.261 182.996L142.309 183.602C142.341 184.016 142.372 184.449 142.402 184.896C142.46 185.756 142.508 186.599 142.543 187.402L142.559 187.8C142.63 189.631 142.625 191.1 142.525 192.081C142.42 193.105 141.907 194.797 141.082 196.987L141.001 197.2C140.84 197.623 140.67 198.059 140.492 198.506C140.134 199.401 139.756 200.309 139.374 201.198L138.924 202.234L138.493 203.199L138.46 203.268L135.175 215.582L135.763 219.198C135.777 219.284 135.733 219.367 135.658 219.404L135.624 219.418L135.363 219.489L135.297 219.506C135.03 219.576 134.717 219.653 134.358 219.737C133.335 219.975 132.156 220.214 130.84 220.436C124.504 221.507 117.5 221.831 110.294 220.959C110.2 220.947 110.128 220.871 110.122 220.777L110.072 220.172C110.011 219.501 109.902 218.353 109.752 216.824L109.241 211.664L109.016 209.411L108.893 209.211L108.746 208.968C108.67 208.839 108.59 208.701 108.505 208.554C108.105 207.855 107.704 207.099 107.33 206.312C106.825 205.25 106.409 204.216 106.111 203.24C105.839 202.35 105.672 201.529 105.626 200.789C105.507 198.914 105.658 197.435 106.104 195.914C106.341 195.105 106.662 194.274 107.134 193.219L107.326 192.796C107.428 192.576 107.57 192.273 107.728 191.938L108.909 189.446L108.83 186.288C108.827 186.192 108.895 186.111 108.985 186.092L109.02 186.088C109.116 186.085 109.198 186.152 109.217 186.243L109.221 186.278L109.301 189.483L109.283 189.571L107.749 192.814C107.681 192.959 107.625 193.08 107.586 193.166C107.068 194.31 106.726 195.181 106.479 196.024C106.047 197.5 105.9 198.933 106.016 200.765C106.061 201.471 106.221 202.263 106.485 203.126C106.777 204.082 107.186 205.099 107.683 206.145C108.053 206.921 108.449 207.669 108.845 208.36L109.006 208.638C109.058 208.727 109.108 208.811 109.156 208.891L109.371 209.24L109.4 209.326L110.293 218.35C110.374 219.192 110.435 219.838 110.472 220.259L110.5 220.589L110.829 220.628C117.66 221.405 124.3 221.106 130.344 220.122L130.775 220.051C131.974 219.848 133.057 219.632 134.012 219.415L134.269 219.356C134.565 219.287 134.83 219.222 135.063 219.163L135.348 219.088L134.783 215.603L134.787 215.521L138.093 203.137L138.412 202.426C138.487 202.257 138.565 202.08 138.646 201.894L138.729 201.705C139.206 200.61 139.683 199.476 140.129 198.361C140.306 197.916 140.476 197.482 140.636 197.062L140.862 196.458C141.59 194.488 142.042 192.961 142.136 192.041L142.158 191.791C142.231 190.881 142.233 189.6 142.177 188.04L142.168 187.815C142.133 186.898 142.079 185.922 142.012 184.922L141.966 184.265C141.951 184.049 141.935 183.838 141.919 183.632L141.808 182.279C141.798 182.172 141.877 182.076 141.985 182.067Z" fill="#4E5C93"/>
<path fill-rule="evenodd" clip-rule="evenodd" d="M131.371 223.132C140.717 223.132 145.909 255.669 152.357 267.937C151.441 270.306 147.044 274.171 147.044 274.171C147.044 274.171 147.243 276.162 147.37 277.359C142.369 280.608 133.285 281.655 133.285 281.655L133.078 283.324C118.189 288.246 99.9384 279.865 99.9384 279.865C99.9384 279.865 99.6256 279.463 100.027 278.182C93.6084 277.384 80.7663 267.68 80.7663 267.68L82.5495 264.404L68.7191 246.842C68.7191 246.842 95.6387 230.564 103.333 225.901C110.257 221.705 109.045 221.055 109.045 221.055C109.045 221.055 121.764 223.132 131.371 223.132Z" fill="#4E5C93"/>
<path d="M89.2891 254.843C89.3633 254.733 89.5123 254.704 89.622 254.778C89.7195 254.844 89.753 254.969 89.7072 255.073L89.6862 255.111L81.3468 267.438L81.4353 267.52L81.7113 267.771L81.8151 267.863C82.3244 268.314 82.9266 268.816 83.6185 269.358C85.5972 270.907 87.8967 272.456 90.4915 273.902C93.4567 275.555 96.6216 276.965 99.9676 278.059C100.093 278.1 100.162 278.235 100.121 278.361C100.08 278.487 99.9445 278.556 99.8186 278.514C96.4422 277.411 93.2493 275.988 90.2581 274.321C87.6406 272.862 85.3205 271.299 83.323 269.735C82.6933 269.242 82.1365 268.781 81.655 268.36L81.4973 268.222C81.3887 268.126 81.2888 268.036 81.1979 267.953L80.9124 267.687C80.893 267.669 80.8777 267.654 80.8666 267.643C80.7943 267.572 80.7754 267.465 80.8152 267.375L80.8359 267.337L89.2891 254.843Z" fill="#253368"/>
<path d="M138.575 245.747C138.689 245.714 138.808 245.771 138.857 245.875L138.871 245.912L147.809 277.561C147.84 277.671 147.789 277.788 147.686 277.84L147.588 277.889C147.52 277.922 147.428 277.966 147.315 278.019L147.046 278.144C146.812 278.251 146.553 278.366 146.271 278.487C145.145 278.969 143.881 279.452 142.508 279.902C139.512 280.885 136.429 281.574 133.373 281.842C133.241 281.854 133.125 281.756 133.113 281.624C133.101 281.492 133.199 281.376 133.331 281.364C136.347 281.1 139.395 280.418 142.358 279.447C143.717 279.001 144.968 278.523 146.082 278.046L146.405 277.906C146.561 277.838 146.708 277.771 146.846 277.708L147.233 277.528L147.293 277.499L138.409 246.042C138.377 245.928 138.434 245.809 138.538 245.76L138.575 245.747Z" fill="#253368"/>
<path d="M128.463 219.135C128.581 219.125 128.687 219.203 128.716 219.315L128.723 219.37L129.232 225.476C129.314 226.474 129.399 227.517 129.487 228.6L129.752 231.884C130.148 236.836 130.542 241.895 130.92 246.935L131.17 250.29C131.355 252.796 131.532 255.25 131.701 257.643L131.954 261.283C132.549 269.944 133.004 277.469 133.287 283.551C133.293 283.667 133.213 283.771 133.099 283.796C124.432 285.693 115.283 284.908 106.511 282.447C104.648 281.924 102.954 281.364 101.463 280.804L101.082 280.659C100.775 280.541 100.493 280.429 100.237 280.324L99.8923 280.18L99.6016 280.054C99.503 280.009 99.448 279.905 99.463 279.801L99.472 279.763L116.169 227.476C116.209 227.35 116.344 227.28 116.47 227.321C116.584 227.357 116.651 227.47 116.634 227.584L116.625 227.622L99.9944 279.702L100.27 279.819L100.574 279.943C100.838 280.05 101.127 280.164 101.44 280.283L101.631 280.355C103.111 280.91 104.791 281.466 106.64 281.985C115.212 284.39 124.142 285.182 132.606 283.411L132.799 283.369L132.695 281.236C132.416 275.744 132.017 269.226 131.514 261.877L131.365 259.713L131.15 256.648C131.003 254.582 130.85 252.473 130.692 250.326L130.442 246.971C130.064 241.932 129.67 236.874 129.274 231.923L128.719 225.09L128.244 219.394C128.233 219.262 128.331 219.146 128.463 219.135Z" fill="#253368"/>
<path d="M122.651 219.406C122.77 219.413 122.864 219.505 122.876 219.62L122.877 219.659L120.411 263.671C120.403 263.803 120.29 263.904 120.158 263.897C120.039 263.89 119.945 263.798 119.933 263.683L119.932 263.644L122.398 219.632C122.406 219.5 122.519 219.399 122.651 219.406Z" fill="#253368"/>
<path d="M112.661 223.955C112.739 223.848 112.888 223.823 112.996 223.9C113.091 223.969 113.122 224.095 113.073 224.198L113.051 224.235L94.837 249.615C94.7598 249.722 94.6101 249.747 94.5025 249.67C94.4069 249.601 94.3768 249.475 94.4255 249.373L94.4475 249.335L112.661 223.955Z" fill="#253368"/>
<path fill-rule="evenodd" clip-rule="evenodd" d="M89.0867 232.374L118.685 230.852L90.7629 219.063L66.1268 222.732L89.0867 232.374Z" fill="#253368"/>
<path fill-rule="evenodd" clip-rule="evenodd" d="M88.2049 230.228L109.702 229.123L89.9248 220.574L71.5297 223.225L88.2049 230.228Z" fill="#4E5C93"/>
<path fill-rule="evenodd" clip-rule="evenodd" d="M118.508 232.353L118.69 230.863L88.5078 232.177L88.8416 233.824L118.508 232.353Z" fill="white"/>
<path d="M85.7474 221.475C85.7736 221.422 85.8325 221.395 85.888 221.408L85.9153 221.418L101.907 229.282C101.969 229.312 101.995 229.387 101.964 229.45C101.938 229.503 101.879 229.529 101.824 229.516L101.796 229.507L85.8046 221.643C85.7424 221.612 85.7168 221.537 85.7474 221.475Z" fill="#CCD7EE"/>
<path d="M88.0485 220.825C88.0738 220.771 88.1323 220.744 88.1879 220.756L88.2154 220.765L106.133 229.206C106.196 229.236 106.222 229.311 106.193 229.373C106.168 229.427 106.109 229.454 106.053 229.442L106.026 229.433L88.1085 220.992C88.0458 220.962 88.019 220.887 88.0485 220.825Z" fill="#CCD7EE"/>
<path d="M85.3366 222.961C85.3635 222.908 85.4229 222.883 85.4781 222.896L85.5053 222.906L98.911 229.731C98.9727 229.762 98.9973 229.838 98.9658 229.9C98.9389 229.953 98.8796 229.978 98.8243 229.965L98.7972 229.955L85.3915 223.13C85.3298 223.098 85.3052 223.023 85.3366 222.961Z" fill="#CCD7EE"/>
<path d="M81.4676 222.937C81.4945 222.884 81.5538 222.858 81.6091 222.872L81.6362 222.882L95.042 229.707C95.1037 229.739 95.1282 229.814 95.0968 229.876C95.0699 229.929 95.0106 229.955 94.9553 229.941L94.9282 229.931L81.5224 223.105C81.4607 223.074 81.4362 222.999 81.4676 222.937Z" fill="#CCD7EE"/>
<path d="M77.8684 223.164C77.8953 223.111 77.9546 223.085 78.0099 223.099L78.037 223.109L91.4427 229.934C91.5044 229.965 91.529 230.041 91.4976 230.103C91.4707 230.156 91.4113 230.181 91.3561 230.168L91.3289 230.157L77.9232 223.333C77.8615 223.301 77.8369 223.226 77.8684 223.164Z" fill="#CCD7EE"/>
<path d="M106.341 227.84C106.41 227.839 106.467 227.894 106.468 227.964C106.469 228.023 106.429 228.073 106.374 228.087L106.345 228.091L88.0164 228.405C87.9472 228.406 87.8901 228.351 87.8889 228.281C87.8879 228.222 87.9283 228.172 87.9834 228.158L88.0121 228.154L106.341 227.84Z" fill="#CCD7EE"/>
<path d="M102.477 225.999C102.546 225.998 102.604 226.053 102.605 226.123C102.606 226.182 102.565 226.232 102.51 226.246L102.482 226.25L84.1534 226.564C84.0841 226.566 84.027 226.51 84.0258 226.441C84.0248 226.382 84.0652 226.331 84.1204 226.317L84.1491 226.314L102.477 225.999Z" fill="#CCD7EE"/>
<path d="M97.6032 224.528C97.6724 224.527 97.7295 224.582 97.7307 224.652C97.7317 224.711 97.6913 224.761 97.6361 224.775L97.6075 224.779L79.2787 225.093C79.2094 225.094 79.1523 225.039 79.1511 224.969C79.1501 224.91 79.1905 224.86 79.2457 224.846L79.2744 224.842L97.6032 224.528Z" fill="#CCD7EE"/>
<path d="M94.5039 221.668C94.5732 221.667 94.6303 221.722 94.6315 221.791C94.6325 221.85 94.5921 221.901 94.5369 221.915L94.5082 221.919L76.1794 222.233C76.1102 222.234 76.0531 222.179 76.0519 222.109C76.0509 222.05 76.0913 222 76.1465 221.986L76.1751 221.982L94.5039 221.668Z" fill="#CCD7EE"/>
<path fill-rule="evenodd" clip-rule="evenodd" d="M88.8184 233.822L87.4987 233.797L65.802 224.366L60.7536 185.462L84.4166 192.851L88.8184 233.822Z" fill="white"/>
<path fill-rule="evenodd" clip-rule="evenodd" d="M87.4515 233.794L64.5697 223.859C64.3613 223.769 64.2144 223.575 64.1849 223.349L59.2926 185.957C59.2311 185.487 59.678 185.112 60.1304 185.254L82.5727 192.295C82.8186 192.373 82.9956 192.588 83.0233 192.844L87.4515 233.794Z" fill="#253368"/>
<path fill-rule="evenodd" clip-rule="evenodd" d="M146.556 224.479L146.061 224.568C142.667 225.171 139.427 222.909 138.823 219.516L133.254 188.208C132.651 184.815 134.913 181.575 138.306 180.971L138.802 180.883C142.195 180.279 145.436 182.541 146.039 185.935L151.608 217.241C152.212 220.635 149.95 223.876 146.556 224.479Z" fill="#FFC999"/>
<path fill-rule="evenodd" clip-rule="evenodd" d="M148.437 199.414L145.843 184.83C145.217 181.314 141.829 178.949 138.313 179.574C134.798 180.2 132.432 183.588 133.058 187.104L135.628 201.55L148.437 199.414Z" fill="white"/>
<path d="M145.993 184.604C146.088 184.588 146.179 184.642 146.211 184.729L146.22 184.763L148.814 199.347C148.831 199.442 148.776 199.533 148.689 199.565L148.655 199.574L135.385 201.864C135.292 201.88 135.202 201.827 135.169 201.741L135.16 201.708L132.91 189.939C132.89 189.833 132.959 189.731 133.065 189.71C133.16 189.692 133.251 189.745 133.284 189.832L133.294 189.866L135.507 201.445L148.395 199.222L145.835 184.831C145.818 184.737 145.873 184.646 145.959 184.614L145.993 184.604Z" fill="#4E5C93"/>
<path fill-rule="evenodd" clip-rule="evenodd" d="M108.066 223.421C108.21 225.23 109.751 226.606 111.564 226.546L146.573 225.368C149.786 225.153 152.205 222.353 151.951 219.143C151.694 215.904 148.819 213.513 145.587 213.85L110.875 219.808C109.146 220.104 107.927 221.672 108.066 223.421Z" fill="#FFC999"/>
<path fill-rule="evenodd" clip-rule="evenodd" d="M114.743 226.334C112.293 228.252 104.358 227.49 104.358 227.49L99.244 230.36C98.4486 230.727 98.2273 230.196 97.8259 230.217C96.7434 230.273 96.6844 229.137 96.6844 229.137C96.3021 228.979 95.7156 229.295 95.4999 228.275C95.4999 228.275 94.7395 228.261 94.6375 227.344C94.584 226.859 99.153 219.586 99.153 219.586L106.524 219.405C106.524 219.405 117.288 219.048 118.619 221.397C119.95 223.746 114.743 226.334 114.743 226.334Z" fill="#FFC999"/>
<path d="M99.0039 219.075L112.34 219.428C112.473 219.432 112.579 219.543 112.576 219.677C112.572 219.797 112.482 219.895 112.366 219.911L112.327 219.913L99.1294 219.564L98.4981 220.577L97.8659 221.601C97.7613 221.771 97.6572 221.941 97.5541 222.109L96.6581 223.587C95.533 225.462 94.7461 226.875 94.724 227.039L94.7236 227.048C94.7385 227.181 94.6426 227.301 94.5095 227.316C94.3764 227.331 94.2565 227.235 94.2416 227.102C94.2127 226.843 94.7584 225.826 95.8791 223.944L96.5323 222.856C96.9278 222.202 97.3459 221.519 97.7684 220.835L98.7922 219.189C98.8313 219.126 98.896 219.086 98.9676 219.077L99.0039 219.075Z" fill="#DD936F"/>
<path d="M101.848 221.296C101.969 221.24 102.113 221.294 102.169 221.415C102.219 221.525 102.181 221.653 102.084 221.718L102.05 221.737L99.3428 222.977L95.7015 228.411C95.6344 228.511 95.5057 228.545 95.3995 228.496L95.3651 228.477C95.265 228.41 95.2309 228.281 95.2794 228.175L95.2987 228.141L98.9782 222.651C98.9969 222.623 99.0211 222.599 99.0492 222.581L99.0786 222.565L101.848 221.296Z" fill="#DD936F"/>
<path d="M102.422 223.259C102.543 223.202 102.688 223.253 102.745 223.374C102.797 223.483 102.76 223.611 102.664 223.678L102.63 223.697L100.489 224.711L96.8748 229.287C96.801 229.38 96.6723 229.405 96.5708 229.351L96.5341 229.327C96.4407 229.253 96.4162 229.124 96.4702 229.023L96.4942 228.986L100.144 224.366C100.159 224.346 100.177 224.329 100.198 224.316L100.23 224.297L102.422 223.259Z" fill="#DD936F"/>
<path d="M104.603 224.303C104.721 224.239 104.868 224.283 104.932 224.401C104.989 224.507 104.959 224.637 104.866 224.708L104.833 224.73L101.868 226.326L98.1285 230.227C98.0461 230.313 97.9157 230.325 97.8198 230.262L97.7856 230.235C97.6997 230.152 97.6876 230.022 97.751 229.926L97.7784 229.892L101.543 225.964L101.603 225.918L104.603 224.303Z" fill="#DD936F"/>
<path d="M68.5708 246.654C68.6633 246.581 68.7927 246.587 68.8778 246.663L68.9075 246.694L82.738 264.256C82.8199 264.36 82.802 264.511 82.698 264.593C82.6055 264.665 82.4762 264.659 82.391 264.584L82.3613 264.553L68.5308 246.991C68.4489 246.887 68.4668 246.736 68.5708 246.654Z" fill="#253368"/>
</svg>
